<svg width="1704" height="1704" viewBox="0 0 1704 1704" fill="none" xmlns="http://www.w3.org/2000/svg">
<path d="M1225.97 1070.59L886.918 833.494V426C886.918 406.795 871.205 391.082 852 391.082C832.795 391.082 817.082 406.795 817.082 426V852C817.082 863.523 822.669 873.999 832.097 880.633L1186.17 1128.2C1192.1 1132.39 1199.09 1134.49 1206.07 1134.49C1216.89 1134.49 1227.72 1129.25 1234.7 1119.12C1245.53 1103.41 1241.69 1081.76 1225.97 1070.59Z" fill="black"/>
<path d="M1453.99 250.013C1292.67 88.6919 1078.97 0 852 0C625.033 0 411.334 88.6919 250.013 250.013C88.6918 411.335 0 625.033 0 852C0 1078.97 88.6918 1292.67 250.013 1453.99C411.334 1615.31 625.033 1704 852 1704C1078.97 1704 1292.67 1615.31 1453.99 1453.99C1615.31 1292.67 1704 1078.97 1704 852C1704 625.033 1615.31 411.335 1453.99 250.013ZM886.918 1633.47V1491C886.918 1471.8 871.205 1456.08 852 1456.08C832.795 1456.08 817.082 1471.8 817.082 1491V1633.47C413.43 1615.66 88.3426 1290.57 70.5344 886.918H213C232.205 886.918 247.918 871.205 247.918 852C247.918 832.795 232.205 817.082 213 817.082H70.5344C88.3426 413.43 413.43 88.3427 817.082 70.5345V213C817.082 232.205 832.795 247.918 852 247.918C871.205 247.918 886.918 232.205 886.918 213V70.5345C1290.57 88.3427 1615.66 413.43 1633.47 817.082H1491C1471.8 817.082 1456.08 832.795 1456.08 852C1456.08 871.205 1471.8 886.918 1491 886.918H1633.47C1615.66 1290.57 1290.57 1615.66 886.918 1633.47Z" fill="black"/>
</svg>
