<?xml version="1.0" encoding="UTF-8" standalone="no"?><!DOCTYPE svg PUBLIC "-//W3C//DTD SVG 1.1//EN" "http://www.w3.org/Graphics/SVG/1.1/DTD/svg11.dtd"><svg width="100%" height="100%" viewBox="0 0 43405 43405" version="1.1" xmlns="http://www.w3.org/2000/svg" xmlns:xlink="http://www.w3.org/1999/xlink" xml:space="preserve" xmlns:serif="http://www.serif.com/" style="fill-rule:evenodd;clip-rule:evenodd;stroke-linejoin:round;stroke-miterlimit:2;"><g><path d="M21676.7,43402.9l0,-8401.12c8892.42,-0 15795.2,-8818.54 12380.4,-18177.9c-1268.72,-3478.4 -4013.28,-6223.29 -7491.54,-7492.42c-9359.42,-3389.67 -18177.9,3487.93 -18177.9,12380.4l-8376.79,0c0,-14172.6 13707.4,-25226.8 28568.7,-20585c6485.42,2040.06 11668.2,7197.58 13683,13683.9c4642.75,14884.8 -6387.17,28592.2 -20585.8,28592.2" style="fill:#0080ff;"/><path d="M12350.2,35653.6l7725.85,0l0,-7725.83l-7725.04,0l-0.804,7725.83Zm-5953.65,5953.67l5952.88,0l0,-5952.88l-5952.88,0l0,5952.88Zm-4977.08,-5952.88l4977.08,0l0,-4977.88l-4977.08,0l-0,4977.88Z" style="fill:#0080ff;"/></g></svg>