<svg width="1741" height="1741" viewBox="0 0 1741 1741" fill="none" xmlns="http://www.w3.org/2000/svg">
<g clip-path="url(#clip0_827_276)">
<path d="M1729.21 906.389C1745.56 884.001 1744.85 853.441 1727.43 831.764C1464.12 508.037 1179.83 343.864 882.047 343.864C377.09 343.864 26.3568 814.352 11.7873 834.252C-4.55897 856.639 -3.84826 887.199 13.564 908.876C276.525 1232.96 560.808 1397.13 858.594 1397.13C1363.55 1397.13 1714.28 926.644 1729.21 906.389ZM858.594 1275.25C610.558 1275.25 368.917 1138.79 139.359 870.142C229.263 763.892 514.967 465.75 882.047 465.75C1130.08 465.75 1371.72 602.206 1601.28 870.853C1511.38 977.104 1225.67 1275.25 858.594 1275.25Z" fill="black"/>
<path d="M870.321 560.985C699.751 560.985 560.808 699.928 560.808 870.498C560.808 1041.07 699.751 1180.01 870.321 1180.01C1040.89 1180.01 1179.83 1041.07 1179.83 870.498C1179.83 699.928 1040.89 560.985 870.321 560.985ZM870.321 1058.12C766.913 1058.12 682.694 973.906 682.694 870.498C682.694 767.09 766.913 682.872 870.321 682.872C973.729 682.872 1057.95 767.09 1057.95 870.498C1057.95 973.906 973.729 1058.12 870.321 1058.12Z" fill="black"/>
</g>
<defs>
<clipPath id="clip0_827_276">
<rect width="1741" height="1741" fill="white"/>
</clipPath>
</defs>
</svg>
