<svg width="1741" height="1700" viewBox="0 0 1741 1700" fill="none" xmlns="http://www.w3.org/2000/svg">
<path d="M870.507 0C389.802 0 0 389.685 0 870.407C0 1254.98 249.427 1581.24 595.306 1696.33C638.811 1704.39 654.783 1677.45 654.783 1654.46C654.783 1633.71 653.976 1565.14 653.601 1492.41C411.425 1545.06 360.323 1389.71 360.323 1389.71C320.725 1289.11 263.669 1262.36 263.669 1262.36C184.688 1208.33 269.623 1209.44 269.623 1209.44C357.037 1215.58 403.064 1299.14 403.064 1299.14C480.705 1432.21 606.708 1393.74 656.383 1371.5C664.196 1315.24 686.756 1276.84 711.651 1255.11C518.3 1233.1 315.045 1158.46 315.045 824.947C315.045 729.918 349.051 652.272 404.737 591.317C395.698 569.394 365.902 480.866 413.169 360.974C413.169 360.974 486.269 337.58 652.621 450.194C722.059 430.908 796.528 421.237 870.507 420.905C944.486 421.237 1019.01 430.908 1088.58 450.194C1254.73 337.58 1327.73 360.974 1327.73 360.974C1375.11 480.866 1345.3 569.394 1336.26 591.317C1392.08 652.272 1425.85 729.918 1425.85 824.947C1425.85 1159.26 1222.21 1232.87 1028.37 1254.41C1059.59 1281.42 1087.41 1334.39 1087.41 1415.6C1087.41 1532.06 1086.4 1625.79 1086.4 1654.46C1086.4 1677.63 1102.07 1704.77 1146.2 1696.22C1491.89 1581 1741 1254.85 1741 870.407C1741 389.685 1351.26 0 870.507 0ZM326.033 1239.91C324.116 1244.24 317.312 1245.53 311.113 1242.57C304.8 1239.73 301.253 1233.83 303.3 1229.49C305.174 1225.04 311.993 1223.8 318.292 1226.78C324.621 1229.62 328.224 1235.57 326.033 1239.91ZM368.853 1278.12C364.701 1281.96 356.585 1280.18 351.079 1274.09C345.385 1268.03 344.318 1259.91 348.527 1256.01C352.808 1252.16 360.679 1253.96 366.388 1260.03C372.082 1266.17 373.192 1274.22 368.853 1278.12ZM398.228 1327C392.895 1330.7 384.173 1327.23 378.782 1319.49C373.448 1311.75 373.448 1302.46 378.897 1298.74C384.303 1295.03 392.895 1298.37 398.358 1306.05C403.677 1313.92 403.677 1323.2 398.228 1327ZM447.909 1383.6C443.137 1388.86 432.975 1387.45 425.536 1380.27C417.925 1373.25 415.806 1363.3 420.592 1358.03C425.421 1352.76 435.641 1354.24 443.137 1361.36C450.691 1368.37 452.997 1378.4 447.909 1383.6ZM512.116 1402.71C510.011 1409.53 500.223 1412.63 490.363 1409.73C480.518 1406.75 474.074 1398.77 476.063 1391.88C478.11 1385.01 487.942 1381.79 497.874 1384.88C507.705 1387.85 514.163 1395.78 512.116 1402.71ZM585.186 1410.82C585.431 1418 577.071 1423.95 566.721 1424.08C556.313 1424.31 547.894 1418.5 547.779 1411.44C547.779 1404.19 555.952 1398.3 566.36 1398.12C576.71 1397.92 585.186 1403.69 585.186 1410.82ZM656.97 1408.07C658.21 1415.07 651.017 1422.27 640.739 1424.18C630.633 1426.03 621.278 1421.7 619.995 1414.76C618.741 1407.58 626.064 1400.39 636.154 1398.53C646.447 1396.74 655.658 1400.95 656.97 1408.07Z" fill="#161614"/>
</svg>
