<svg width="3974" height="1079" viewBox="0 0 3974 1079" fill="none" xmlns="http://www.w3.org/2000/svg">
<path d="M766.052 460.418H431.827C423.206 460.418 416.207 467.426 416.207 476.048V639.477C416.207 648.099 423.206 655.115 431.827 655.115H562.209V858.16C562.209 858.16 532.933 868.141 451.994 868.141C356.503 868.141 223.106 833.245 223.106 539.884C223.106 246.456 362.011 207.85 492.418 207.85C605.3 207.85 653.931 227.728 684.873 237.303C694.596 240.285 703.59 230.603 703.59 221.972L740.875 64.0678C740.875 60.034 739.508 55.172 734.904 51.8671C722.34 42.9051 645.674 0 451.994 0C228.871 0 0 94.9379 0 551.322C0 1007.72 262.04 1075.73 482.852 1075.73C665.683 1075.73 776.595 997.593 776.595 997.593C781.166 995.067 781.663 988.681 781.663 985.749V476.048C781.663 467.426 774.673 460.418 766.052 460.418ZM2487.6 57.1267C2487.6 48.4298 2480.71 41.4142 2472.08 41.4142H2283.89C2275.3 41.4142 2268.31 48.4298 2268.31 57.1267C2268.31 57.1682 2268.36 420.851 2268.36 420.851H1975.02V57.1267C1975.02 48.4298 1968.1 41.4142 1959.49 41.4142H1771.31C1762.75 41.4142 1755.76 48.4298 1755.76 57.1267V1041.98C1755.76 1050.67 1762.75 1057.74 1771.31 1057.74H1959.49C1968.1 1057.74 1975.02 1050.67 1975.02 1041.98V620.724H2268.36C2268.36 620.724 2267.84 1041.95 2267.84 1041.98C2267.84 1050.67 2274.83 1057.74 2283.43 1057.74H2472.07C2480.69 1057.74 2487.58 1050.67 2487.6 1041.98V57.1267ZM1120.57 188.799C1120.57 121.029 1066.24 66.2627 999.212 66.2627C932.253 66.2627 877.882 121.029 877.882 188.799C877.882 256.495 932.253 311.41 999.212 311.41C1066.24 311.41 1120.57 256.495 1120.57 188.799ZM1105.64 834.745V380.133C1105.64 371.502 1098.67 364.445 1090.07 364.445H902.471C893.867 364.445 886.164 373.324 886.164 381.955V1033.28C886.164 1052.42 898.09 1058.11 913.528 1058.11H1082.55C1101.09 1058.11 1105.64 1049.01 1105.64 1032.97V834.745ZM3206.85 364.445H3020.1C3011.53 364.445 3004.56 371.502 3004.56 380.191V863.097C3004.56 863.097 2957.12 897.81 2889.78 897.81C2822.45 897.81 2804.58 867.255 2804.58 801.315V380.191C2804.58 371.502 2797.62 364.445 2789.05 364.445H2599.52C2590.96 364.445 2583.96 371.502 2583.96 380.191V833.204C2583.96 1029.06 2693.1 1076.98 2843.25 1076.98C2966.43 1076.98 3065.75 1008.92 3065.75 1008.92C3065.75 1008.92 3070.48 1044.78 3072.61 1049.04C3074.76 1053.28 3080.33 1057.56 3086.35 1057.56L3206.93 1057.03C3215.48 1057.03 3222.49 1049.96 3222.49 1041.31L3222.43 380.191C3222.43 371.502 3215.45 364.445 3206.85 364.445ZM3637.12 898.183C3572.34 896.212 3528.41 866.816 3528.41 866.816V554.934C3528.41 554.934 3571.76 528.362 3624.93 523.608C3692.18 517.586 3756.98 537.904 3756.98 698.343C3756.98 867.528 3727.74 900.916 3637.12 898.183ZM3710.78 343.291C3604.71 343.291 3532.57 390.619 3532.57 390.619V57.1267C3532.57 48.4298 3525.62 41.4142 3517.04 41.4142H3328.32C3319.74 41.4142 3312.76 48.4298 3312.76 57.1267V1041.98C3312.76 1050.67 3319.74 1057.74 3328.34 1057.74H3459.28C3465.18 1057.74 3469.64 1054.7 3472.94 1049.38C3476.19 1044.09 3480.89 1003.97 3480.89 1003.97C3480.89 1003.97 3558.06 1077.11 3704.14 1077.11C3875.64 1077.11 3974 990.106 3974 686.531C3974 382.957 3816.92 343.291 3710.78 343.291ZM1647.26 362.755H1506.1C1506.1 362.755 1505.88 176.284 1505.88 176.242C1505.88 169.185 1502.25 165.657 1494.09 165.657H1301.72C1294.24 165.657 1290.22 168.945 1290.22 176.135V368.876C1290.22 368.876 1193.82 392.151 1187.3 394.031C1180.81 395.911 1176.03 401.9 1176.03 409.04V530.16C1176.03 538.873 1182.99 545.897 1191.59 545.897H1290.22V837.271C1290.22 1053.69 1442.01 1074.96 1544.44 1074.96C1591.24 1074.96 1647.23 1059.92 1656.47 1056.51C1662.06 1054.46 1665.31 1048.67 1665.31 1042.39L1665.47 909.149C1665.47 900.461 1658.13 893.428 1649.86 893.428C1641.64 893.428 1620.6 896.775 1598.93 896.775C1529.59 896.775 1506.1 864.53 1506.1 822.792C1506.1 781.088 1506.09 545.897 1506.09 545.897H1647.26C1655.87 545.897 1662.83 538.873 1662.83 530.16V378.451C1662.83 369.763 1655.87 362.755 1647.26 362.755Z" fill="#11110F"/>
</svg>
