<svg width="1741" height="1741" viewBox="0 0 1741 1741" fill="none" xmlns="http://www.w3.org/2000/svg">
<path d="M1482.54 1482.25H1224.78V1078.58C1224.78 982.325 1223.06 858.411 1090.72 858.411C956.463 858.411 935.921 963.284 935.921 1071.57V1482.22H678.166V652.119H925.612V765.56H929.082C979.464 679.415 1073.49 627.772 1173.23 631.476C1434.48 631.476 1482.65 803.313 1482.65 1026.87L1482.54 1482.25ZM387.325 538.648C387.309 538.648 387.301 538.648 387.293 538.648C305.234 538.648 237.71 471.132 237.71 389.072C237.71 307.013 305.234 239.489 387.293 239.489C469.345 239.489 536.861 306.998 536.877 389.041C536.877 389.049 536.877 389.057 536.877 389.072C536.877 471.116 469.368 538.64 387.325 538.648ZM516.202 1482.25H258.174V652.119H516.202V1482.25ZM1611.04 0.120014H128.643C59.0568 -0.665875 1.12676 55.918 0.278625 125.504V1614.05C1.09564 1683.68 59.0179 1740.33 128.643 1739.58H1611.04C1680.83 1740.46 1738.96 1683.82 1739.89 1614.05V125.403C1738.96 55.669 1680.76 -0.907147 1611.04 0.0110198V0.120014Z" fill="#0A66C2"/>
</svg>
