<svg width="3916" height="955" viewBox="0 0 3916 955" fill="none" xmlns="http://www.w3.org/2000/svg">
<g clip-path="url(#clip0_827_101)">
<path d="M3877.72 898.863C3877.76 898.863 3877.8 898.863 3877.89 898.863C3887.61 898.863 3895.62 890.86 3895.62 881.137C3895.62 880.794 3895.62 880.456 3895.57 880.113C3895.57 866.819 3887.57 860.465 3871.08 860.465H3844.49V930.084H3854.51V899.736H3866.8L3867.06 900.104L3886.15 930.084H3896.86L3876.35 899.055L3877.72 898.863ZM3866.12 891.888H3854.51V868.356H3869.24C3876.82 868.356 3885.47 869.594 3885.47 879.54C3885.47 890.976 3876.73 891.888 3866.07 891.888H3866.12ZM-19 137.65H128.638V675.444H401.971V811.694H-19V137.65ZM467.244 354.671H609.081V811.441H467.244V354.671ZM538.16 127.588C583.293 127.596 620.427 164.735 620.427 209.867C620.427 255.004 583.284 292.147 538.148 292.147C493.011 292.147 455.868 255.004 455.868 209.867C455.868 164.731 493.011 127.588 538.148 127.588C538.152 127.588 538.156 127.588 538.16 127.588ZM1202.4 137.547H1344.23V540.373L1504.98 354.466H1678.88L1492.72 565.934L1674.96 811.634H1496.69L1346.12 585.848H1344.26V811.604H1202.43L1202.4 137.547ZM687.725 354.718H823.932V417.14H825.867C853.547 369.712 905.291 341.287 960.168 343.355C1104 343.355 1130.47 437.987 1130.47 560.925V811.411H988.636V589.337C988.636 536.327 987.664 468.185 914.766 468.185C841.041 468.185 829.665 525.91 829.665 585.479V811.355H687.828L687.725 354.718Z" fill="#0A66C2"/>
<path d="M1977.57 529.93C1977.59 529.262 1977.6 528.59 1977.6 527.922C1977.6 481.27 1939.21 442.881 1892.55 442.881C1891.87 442.881 1891.18 442.89 1890.49 442.907C1839.26 439.717 1794.3 478.757 1790.26 529.93H1977.57ZM2097.72 732.339C2050.02 790.183 1978.73 823.584 1903.76 823.22C1761.92 823.22 1648.37 728.541 1648.37 581.935C1648.37 435.328 1761.91 340.696 1903.76 340.696C2036.33 340.696 2119.47 435.251 2119.47 581.935V626.408H1790.26C1798.7 678.318 1844.58 716.484 1897.15 715.336C1938.13 715.08 1976.29 694.035 1998.37 659.517L2097.72 732.339ZM2415.11 465.081C2344.19 465.081 2301.64 512.436 2301.64 581.434C2301.64 650.432 2344.17 697.825 2415.11 697.825C2486.04 697.825 2528.68 650.547 2528.68 581.434C2528.68 512.316 2486.11 465.081 2415.11 465.081ZM2659.26 811.356H2528.68V750.779H2526.75C2493.56 795.407 2441.34 822.042 2385.74 822.702C2249.46 822.702 2159.68 724.345 2159.68 585.257C2159.68 457.52 2239.13 340.221 2369.72 340.221C2428.42 340.221 2483.25 356.281 2515.41 400.797H2517.27V137.5H2659.24L2659.26 811.356ZM3616.78 811.621H3474.94V589.5C3474.94 536.532 3474 468.348 3401.18 468.348C3327.3 468.348 3316 526.055 3316 585.642V811.604H3174.17V354.834H3310.33V417.256H3312.24C3339.96 369.854 3391.7 341.437 3446.58 343.475C3590.33 343.475 3616.84 438.03 3616.84 561.045L3616.78 811.621ZM3014.13 292.396C3014.12 292.396 3014.12 292.396 3014.11 292.396C2968.96 292.396 2931.8 255.244 2931.8 210.09C2931.8 164.937 2968.96 127.781 3014.11 127.781C3059.26 127.781 3096.41 164.928 3096.42 210.073C3096.42 210.078 3096.42 210.082 3096.42 210.09C3096.42 255.236 3059.27 292.391 3014.13 292.396ZM3085.04 811.621H2943.06V354.834H3085.04V811.621ZM3687.49 -3.93396H2871.79C2833.5 -4.3664 2801.62 26.7693 2801.15 65.0597V884.147C2801.6 922.459 2833.48 953.629 2871.79 953.218H3687.49C3725.89 953.702 3757.88 922.536 3758.39 884.147V65.004C3757.88 26.6323 3725.85 -4.49917 3687.49 -3.99394V-3.93396ZM3867.36 829.454C3831.78 829.796 3802.71 859.151 3802.71 894.723C3802.71 930.534 3832.16 960 3867.96 960C3903.79 960 3933.25 930.534 3933.25 894.723C3933.25 859.151 3904.18 829.796 3868.6 829.454H3867.36ZM3867.36 952.524C3867.02 952.529 3866.72 952.533 3866.37 952.533C3834.99 952.533 3809.17 926.698 3809.17 895.296C3809.17 863.899 3834.99 838.06 3866.37 838.06C3897.41 838.06 3923.1 863.309 3923.62 894.342V895.305C3924.26 926.017 3899.56 951.831 3868.86 952.494H3867.36" fill="#0A66C2"/>
</g>
<defs>
<clipPath id="clip0_827_101">
<rect width="3916" height="955" fill="white"/>
</clipPath>
</defs>
</svg>
