<svg width="3937" height="2412" viewBox="0 0 3937 2412" fill="none" xmlns="http://www.w3.org/2000/svg">
<g clip-path="url(#clip0_723_79)">
<path d="M1946.26 2411.83C1933.27 2411.83 1920.35 2408.44 1908.98 2401.86L1790.31 2331.62C1772.59 2321.71 1781.24 2318.19 1787.08 2316.16C1810.72 2307.95 1815.51 2306.05 1840.75 2291.74C1843.37 2290.26 1846.86 2290.83 1849.57 2292.42L1940.74 2346.56C1944.04 2348.39 1948.71 2348.39 1951.75 2346.56L2307.2 2141.35C2310.51 2139.46 2312.62 2135.65 2312.62 2131.73V1721.43C2312.62 1717.41 2310.51 1713.67 2307.11 1711.63L1951.81 1506.6C1948.53 1504.68 1944.17 1504.68 1940.86 1506.6L1585.65 1711.69C1582.2 1713.67 1580.01 1717.54 1580.01 1721.43V2131.73C1580.01 2135.65 1582.2 2139.37 1585.61 2141.24L1682.99 2197.51C1735.82 2223.93 1768.17 2192.81 1768.17 2161.54V1756.45C1768.17 1750.72 1772.77 1746.2 1778.5 1746.2H1823.56C1829.2 1746.2 1833.87 1750.72 1833.87 1756.45V2161.54C1833.87 2232.07 1795.47 2272.52 1728.62 2272.52C1708.08 2272.52 1691.9 2272.52 1646.75 2250.26L1553.54 2196.59C1530.51 2183.28 1516.26 2158.38 1516.26 2131.73V1721.43C1516.26 1694.77 1530.51 1669.88 1553.54 1656.63L1908.98 1451.19C1931.47 1438.47 1961.37 1438.47 1983.68 1451.19L2339.1 1656.63C2362.12 1669.95 2376.43 1694.77 2376.43 1721.43V2131.73C2376.43 2158.38 2362.12 2183.19 2339.1 2196.59L1983.68 2401.86C1972.32 2408.44 1959.43 2411.83 1946.26 2411.83Z" fill="#679F64"/>
<path d="M2056.04 2129.15C1900.5 2129.15 1867.91 2057.74 1867.91 1997.84C1867.91 1992.14 1872.49 1987.59 1878.18 1987.59H1924.14C1929.27 1987.59 1933.55 1991.29 1934.35 1996.3C1941.29 2043.09 1961.98 2066.71 2056.04 2066.71C2130.92 2066.71 2162.8 2049.77 2162.8 2010.03C2162.8 1987.12 2153.76 1970.12 2037.39 1958.72C1940.13 1949.09 1879.98 1927.6 1879.98 1849.79C1879.98 1778.05 1940.43 1735.27 2041.78 1735.27C2155.65 1735.27 2212 1774.8 2219.14 1859.61C2219.4 1862.54 2218.37 1865.34 2216.42 1867.52C2214.47 1869.56 2211.76 1870.81 2208.89 1870.81H2162.76C2157.98 1870.81 2153.76 1867.41 2152.79 1862.77C2141.72 1813.53 2114.8 1797.79 2041.78 1797.79C1960.03 1797.79 1950.52 1826.28 1950.52 1847.63C1950.52 1873.49 1961.74 1881.01 2072.12 1895.63C2181.36 1910.07 2233.25 1930.52 2233.25 2007.32C2233.25 2084.78 2168.67 2129.15 2056.04 2129.15" fill="#679F64"/>
<path d="M2488.85 1694.13H2500.8C2510.57 1694.13 2512.4 1687.26 2512.4 1683.27C2512.4 1672.74 2505.14 1672.74 2501.16 1672.74H2488.85V1694.13ZM2474.33 1660.41H2500.8C2509.87 1660.41 2527.64 1660.41 2527.64 1680.73C2527.64 1694.87 2518.57 1697.77 2513.11 1699.58C2523.65 1700.3 2524.36 1707.2 2525.8 1716.98C2526.54 1723.14 2527.64 1733.67 2529.79 1737.28H2513.5C2513.11 1733.67 2510.57 1714.08 2510.57 1713C2509.51 1708.64 2508.03 1706.48 2502.61 1706.48H2489.21V1737.28H2474.33V1660.41ZM2442.63 1698.66C2442.63 1730.58 2468.37 1756.32 2499.89 1756.32C2531.8 1756.32 2557.53 1730.04 2557.53 1698.66C2557.53 1666.77 2531.44 1641.39 2499.89 1641.39C2468.73 1641.39 2442.63 1666.4 2442.63 1698.66ZM2568.57 1698.86C2568.57 1736.56 2537.75 1767.38 2500.07 1767.38C2462.73 1767.38 2431.56 1736.92 2431.56 1698.86C2431.56 1660.07 2463.47 1630.32 2500.07 1630.32C2537.05 1630.32 2568.57 1660.07 2568.57 1698.86Z" fill="#679F64"/>
<path fill-rule="evenodd" clip-rule="evenodd" d="M845.555 806.569C845.555 790.185 836.933 775.127 822.797 767.011L445.949 550.087C439.579 546.332 432.434 544.382 425.21 544.089H421.313C414.106 544.382 406.97 546.332 400.502 550.087L23.6558 767.011C9.60726 775.127 0.869324 790.185 0.869324 806.569L1.69784 1390.69C1.69784 1398.81 5.91521 1406.37 13.0601 1410.36C20.0534 1414.55 28.7016 1414.55 35.6672 1410.36L259.63 1282.08C273.796 1273.67 282.416 1258.82 282.416 1242.58V969.68C282.416 953.411 291.03 938.353 305.141 930.265L400.502 875.328C407.61 871.225 415.379 869.213 423.316 869.213C431.082 869.213 439.045 871.225 445.951 875.328L541.284 930.265C555.396 938.353 564.045 953.411 564.045 969.68V1242.58C564.045 1258.82 572.78 1273.76 586.857 1282.08L810.758 1410.36C817.779 1414.55 826.551 1414.55 833.508 1410.36C840.448 1406.37 844.817 1398.81 844.817 1390.69L845.555 806.569Z" fill="#333333"/>
<path fill-rule="evenodd" clip-rule="evenodd" d="M2623.83 1110.72C2623.83 1114.78 2621.66 1118.54 2618.13 1120.56L2488.7 1195.19C2485.18 1197.21 2480.85 1197.21 2477.33 1195.19L2347.9 1120.56C2344.36 1118.54 2342.2 1114.78 2342.2 1110.72V961.215C2342.2 957.157 2344.36 953.394 2347.89 951.356L2477.32 876.581C2480.85 874.544 2485.18 874.544 2488.71 876.581L2618.14 951.356C2621.66 953.394 2623.83 957.157 2623.83 961.215V1110.72ZM2658.8 3.59405C2651.75 -0.321012 2643.15 -0.239909 2636.18 3.85243C2629.23 7.93837 2624.95 15.414 2624.95 23.4855V601.952C2624.95 607.64 2621.91 612.907 2617 615.756C2612.07 618.603 2605.99 618.603 2601.06 615.756L2506.67 561.362C2492.59 553.237 2475.27 553.254 2461.19 561.37L2084.2 778.991C2070.1 787.124 2061.43 802.156 2061.43 818.423V1253.75C2061.43 1270.02 2070.1 1285.04 2084.18 1293.2L2461.16 1510.97C2475.25 1519.11 2492.6 1519.11 2506.7 1510.97L2883.74 1293.2C2897.81 1285.04 2906.5 1270.02 2906.5 1253.75V168.582C2906.5 152.082 2897.56 136.864 2883.15 128.821L2658.8 3.59405Z" fill="#333333"/>
<path fill-rule="evenodd" clip-rule="evenodd" d="M3914.14 957.298C3928.16 949.154 3936.79 934.15 3936.79 917.928V812.432C3936.79 796.208 3928.16 781.195 3914.12 773.051L3539.55 555.522C3525.46 547.325 3508.07 547.316 3493.94 555.458L3117.08 773.079C3103 781.212 3094.32 796.236 3094.32 812.503V1247.72C3094.32 1264.09 3103.11 1279.19 3117.31 1287.28L3491.83 1500.74C3505.64 1508.62 3522.57 1508.71 3536.47 1500.99L3762.99 1375.05C3770.18 1371.04 3774.66 1363.51 3774.7 1355.3C3774.76 1347.09 3770.39 1339.49 3763.28 1335.4L3384.03 1117.68C3376.95 1113.62 3372.59 1106.07 3372.59 1097.93V961.534C3372.59 953.401 3376.93 945.871 3383.98 941.813L3502.02 873.749C3509.04 869.691 3517.71 869.691 3524.74 873.749L3642.83 941.813C3649.88 945.871 3654.21 953.401 3654.21 961.534V1068.84C3654.21 1077 3658.57 1084.53 3665.63 1088.58C3672.68 1092.66 3681.38 1092.62 3688.42 1088.54L3914.14 957.298Z" fill="#333333"/>
<path fill-rule="evenodd" clip-rule="evenodd" d="M3511.2 936.922C3513.9 935.354 3517.23 935.354 3519.94 936.922L3592.27 978.659C3594.98 980.227 3596.64 983.11 3596.64 986.233V1069.78C3596.64 1072.92 3594.98 1075.79 3592.27 1077.36L3519.94 1119.1C3517.23 1120.67 3513.9 1120.67 3511.2 1119.1L3438.92 1077.36C3436.21 1075.79 3434.55 1072.92 3434.55 1069.78V986.233C3434.55 983.11 3436.21 980.227 3438.92 978.659L3511.2 936.922Z" fill="#679F64"/>
<path d="M1430.9 557.731L1056.02 774.121C1042 782.212 1033.38 797.154 1033.38 813.342V1246.45C1033.38 1262.62 1042 1277.57 1056.01 1285.67L1430.88 1502.23C1444.91 1510.32 1462.17 1510.32 1476.18 1502.23L1850.97 1285.67C1864.98 1277.57 1873.6 1262.62 1873.6 1246.45V813.323C1873.6 797.154 1864.98 782.212 1850.95 774.121L1476.17 557.731C1469.17 553.69 1461.35 551.661 1453.54 551.661C1445.72 551.661 1437.91 553.69 1430.9 557.731Z" fill="url(#paint0_linear_723_79)"/>
<path d="M1042.7 1273.96C1046.26 1278.64 1050.76 1282.64 1056.01 1285.69L1377.59 1471.45L1431.13 1502.24C1439.13 1506.86 1448.27 1508.82 1457.25 1508.16C1460.25 1507.91 1463.24 1507.36 1466.15 1506.52L1861.46 782.481C1858.44 779.232 1854.91 776.411 1850.95 774.132L1605.5 632.408L1475.78 557.742C1472.07 555.606 1468.09 554.066 1464.01 553.06L1042.7 1273.96Z" fill="url(#paint1_linear_723_79)"/>
<path d="M1449 551.902C1442.72 552.524 1436.56 554.474 1430.91 557.731L1057.09 773.5L1460.08 1507.82C1465.67 1507.01 1471.14 1505.15 1476.19 1502.23L1850.98 1285.67C1862.55 1278.97 1870.45 1267.6 1872.85 1254.73L1461.99 552.65C1458.95 552.043 1455.86 551.742 1452.78 551.742C1451.51 551.742 1450.25 551.795 1448.99 551.902H1449Z" fill="url(#paint2_linear_723_79)"/>
</g>
<defs>
<linearGradient id="paint0_linear_723_79" x1="1605.9" y1="718.87" x2="1267.09" y2="1409.87" gradientUnits="userSpaceOnUse">
<stop stop-color="#697E66"/>
<stop offset="1" stop-color="#82A178"/>
</linearGradient>
<linearGradient id="paint1_linear_723_79" x1="1396.43" y1="1080.54" x2="2346.9" y2="378.457" gradientUnits="userSpaceOnUse">
<stop stop-color="#697E66"/>
<stop offset="0.14" stop-color="#697E66"/>
<stop offset="0.91" stop-color="#9AB48E"/>
<stop offset="1" stop-color="#9AB48E"/>
</linearGradient>
<linearGradient id="paint2_linear_723_79" x1="1020.12" y1="1029.79" x2="1886.87" y2="1029.79" gradientUnits="userSpaceOnUse">
<stop stop-color="#9AB48E"/>
<stop offset="0.09" stop-color="#9AB48E"/>
<stop offset="0.86" stop-color="#697E66"/>
<stop offset="1" stop-color="#697E66"/>
</linearGradient>
<clipPath id="clip0_723_79">
<rect width="3937" height="2411.9" fill="white"/>
</clipPath>
</defs>
</svg>
