<svg width="4009" height="1549" viewBox="0 0 4009 1549" fill="none" xmlns="http://www.w3.org/2000/svg">
<path fill-rule="evenodd" clip-rule="evenodd" d="M2039.28 751.264H1843.23V1396.52H2039.28V1127.32C2039.14 1098.04 2040.89 1068.77 2044.53 1039.72C2047.22 1015.53 2055.01 992.202 2067.38 971.318C2079.61 951.937 2097.07 936.511 2117.7 926.866C2139.52 916.237 2169.07 910.921 2206.35 910.921C2220.58 910.875 2234.79 911.982 2248.83 914.233C2262.69 916.565 2276.36 919.886 2289.75 924.174V741.947C2279.48 739.196 2268.98 737.419 2258.38 736.631C2246.99 735.802 2235.67 735.319 2224.28 735.319C2180.73 735.319 2144.57 745.282 2115.79 765.205C2087.01 785.133 2062.19 815.042 2041.33 854.942H2038.67L2039.28 751.264ZM2584.82 392.811H2388.9V1396.52H2569.27V1311.55H2571.93C2580.9 1324.35 2591.19 1336.15 2602.62 1346.75C2616.1 1359.34 2631.03 1370.26 2647.08 1379.27C2664.66 1389.25 2683.28 1397.26 2702.59 1403.15C2723.38 1409.47 2744.98 1412.61 2766.69 1412.46C2810.57 1413.07 2854.13 1404.71 2894.75 1387.89C2932.11 1372.23 2965.74 1348.7 2993.43 1318.87C3021.39 1288.38 3042.96 1252.48 3056.84 1213.33C3072.04 1170.31 3079.57 1124.89 3079.08 1079.21C3079.19 1035.23 3072.29 991.528 3058.62 949.782C3045.94 910.142 3026.49 873.066 3001.13 840.241C2976.52 808.559 2945.54 782.536 2910.23 763.898C2872.64 744.394 2830.88 734.581 2788.65 735.319C2749.71 734.981 2711.02 741.496 2674.29 754.576C2639.43 767.11 2609.12 790.017 2587.34 820.29H2584.75L2584.82 392.811ZM2610.32 1192.06C2583.04 1161.97 2569.41 1122.58 2569.41 1073.89C2569.41 1025.2 2583.04 985.815 2610.32 955.719C2637.6 925.622 2676.24 910.574 2726.25 910.574C2776.26 910.574 2814.9 925.622 2842.18 955.719C2869.46 985.815 2883.09 1025.2 2883.09 1073.89C2883.09 1122.58 2869.46 1161.97 2842.18 1192.06C2814.9 1222.16 2776.26 1237.21 2726.25 1237.21C2676.24 1237.21 2637.64 1222.16 2610.46 1192.06H2610.32ZM3802.73 910.574H3975.26V751.264H3802.73V560.336H3606.75V751.542H3481.27V910.852H3606.75V1217.54C3605.89 1248.59 3611.93 1279.44 3624.41 1307.82C3635.51 1331.79 3652.37 1352.55 3673.44 1368.22C3695.41 1384.11 3720.21 1395.53 3746.47 1401.84C3776.44 1409.14 3807.17 1412.71 3837.99 1412.46C3861.14 1412.42 3884.27 1411.08 3907.27 1408.46C3930.56 1405.94 3953.45 1400.58 3975.47 1392.52V1226.85C3964.44 1235.76 3951.01 1241.08 3936.94 1242.11C3923.38 1244.05 3909.71 1245.15 3896.02 1245.42C3878.73 1246.14 3861.47 1243.2 3845.36 1236.79C3833.62 1231.88 3823.77 1223.26 3817.26 1212.22C3810.81 1200.56 3806.8 1187.69 3805.46 1174.4C3803.63 1158.36 3802.77 1142.22 3802.87 1126.08L3802.73 910.574ZM3199.78 466.462C3181.28 485.278 3169.8 510.003 3167.28 536.422C3164.77 562.847 3171.38 589.334 3185.99 611.38C3200.6 633.422 3222.3 649.659 3247.41 657.326C3272.51 664.994 3299.47 663.618 3323.69 653.431C3347.9 643.244 3367.88 624.875 3380.22 601.453C3392.57 578.031 3396.51 551.006 3391.38 524.973C3386.25 498.941 3372.36 475.515 3352.09 458.681C3331.81 441.844 3306.4 432.641 3280.18 432.639C3265.21 432.454 3250.36 435.357 3236.54 441.172C3222.71 446.987 3210.21 455.592 3199.78 466.462ZM3378.24 751.264H3182.12V1396.52H3378.24V751.264Z" fill="#1E2124"/>
<path fill-rule="evenodd" clip-rule="evenodd" d="M1720.61 676.717C1704.8 555.727 1659.88 440.51 1589.8 341.193C1519.73 241.875 1426.63 161.492 1318.69 107.103C1210.75 52.7138 1091.27 25.9816 970.738 29.2544C850.209 32.5272 732.317 65.7044 627.413 125.873C522.509 186.042 433.804 271.361 369.087 374.339C304.37 477.316 265.621 594.803 256.242 716.481C246.863 838.16 267.141 960.307 315.296 1072.2C363.45 1184.09 438.009 1282.3 532.423 1358.21C604.708 1325.63 683.744 1287.6 767.687 1244.95C682.783 1203.76 610.639 1139.84 559.087 1060.1C507.535 980.358 478.543 887.846 475.258 792.605C471.973 697.369 494.515 603.035 540.445 519.849C586.375 436.66 653.936 367.793 735.793 320.72C817.654 273.648 910.685 250.168 1004.8 252.828C1098.91 255.487 1190.5 284.185 1269.64 335.808C1348.77 387.43 1412.43 460.008 1453.7 545.658C1494.98 631.309 1512.29 726.768 1503.75 821.676C1581.5 771.767 1654.19 723.174 1720.61 676.717ZM1726.81 761.206C1652.41 816.911 1569.97 874.616 1481.32 932.808C1441.72 1058.52 1356.55 1164.38 1242.94 1229.07C1129.33 1293.76 995.722 1312.48 869.019 1281.46C771.846 1328.74 679.649 1369.67 595.227 1403.57C707.516 1475.85 837.052 1515.99 970.073 1519.72C1103.09 1523.44 1234.63 1490.62 1350.69 1424.73C1466.76 1358.85 1563.02 1262.36 1629.24 1145.53C1695.47 1028.7 1729.19 895.883 1726.81 761.206Z" fill="#1E2124"/>
<path fill-rule="evenodd" clip-rule="evenodd" d="M1764.19 154.876C1774.16 154.876 1783.9 151.885 1792.19 146.279C1800.48 140.674 1806.93 132.707 1810.75 123.387C1814.56 114.066 1815.56 103.809 1813.62 93.9141C1811.67 84.0192 1806.87 74.9298 1799.83 67.7962C1792.78 60.6621 1783.8 55.8037 1774.02 53.8356C1764.25 51.8675 1754.12 52.8775 1744.91 56.7386C1735.7 60.5993 1727.83 67.1374 1722.29 75.5262C1716.75 83.9144 1713.8 93.777 1713.8 103.866C1713.79 110.567 1715.09 117.204 1717.62 123.398C1720.14 129.59 1723.86 135.217 1728.54 139.956C1733.22 144.694 1738.78 148.452 1744.89 151.012C1751.01 153.572 1757.57 154.886 1764.19 154.876Z" fill="#00CCF5"/>
<path fill-rule="evenodd" clip-rule="evenodd" d="M68.5157 1021.58C81.8091 1021.58 94.8038 1017.58 105.854 1010.1C116.904 1002.62 125.514 991.994 130.591 979.556C135.669 967.119 136.988 953.437 134.379 940.244C131.771 927.05 125.353 914.936 115.939 905.437C106.525 895.933 94.5368 889.477 81.4939 886.876C68.451 884.275 54.9388 885.65 42.6689 890.83C30.3989 896.006 19.9227 904.753 12.5666 915.961C5.21063 927.173 1.30565 940.335 1.34614 953.793C1.40029 971.788 8.50093 989.028 21.0918 1001.73C33.6826 1014.44 50.7367 1021.58 68.5157 1021.58Z" fill="#00CCF5"/>
<path fill-rule="evenodd" clip-rule="evenodd" d="M1202.9 621.089C1275.46 580.501 1346.1 541.985 1414.3 506.436C1416.82 510.577 1419.55 515.479 1422.41 521.001C1354.83 556.756 1284.19 595.412 1211.63 636.069L1202.9 621.089ZM2145.32 258.907C2112.93 202.099 1916.53 262.428 1638.58 393.922C1641.18 398.271 1643.76 402.758 1646.22 407.313C1912.51 278.994 2098.33 217.216 2121.93 266.914C2159.02 331.937 1733.23 650.976 1171.33 979.473C609.423 1307.97 123.484 1521.54 86.3871 1456.51C65.2479 1417.86 169.787 1312.52 263.687 1228.73C128.462 1339.17 57.5419 1424.28 80.8638 1465.14C133.781 1557.98 645.973 1375.41 1216.13 1042.43C1786.29 709.441 2198.51 351.748 2145.32 258.907Z" fill="#00CCF5"/>
<path d="M1136.14 675.058C1124.12 654.188 1119.63 629.745 1123.43 605.9C1127.23 582.05 1139.08 560.277 1156.97 544.286C1174.85 528.295 1197.66 519.079 1221.51 518.208C1245.36 517.338 1268.77 524.869 1287.74 539.516C1306.72 554.163 1320.09 575.02 1325.57 598.529C1331.05 622.037 1328.31 646.743 1317.81 668.434C1307.31 690.125 1289.7 707.455 1267.99 717.478C1246.28 727.496 1221.8 729.579 1198.74 723.378C1185.6 720.057 1173.28 714.057 1162.51 705.751C1151.75 697.441 1142.77 686.999 1136.14 675.058Z" fill="#FA00E9"/>
</svg>
