<svg width="1761" height="1222" viewBox="0 0 1761 1222" fill="none" xmlns="http://www.w3.org/2000/svg">
<g clip-path="url(#clip0_829_422)">
<path fill-rule="evenodd" clip-rule="evenodd" d="M1409.13 531.321C1396.18 432.225 1359.37 337.859 1301.94 256.514C1244.52 175.17 1168.23 109.333 1079.78 64.7868C991.331 20.2403 893.421 -1.6543 794.653 1.02624C695.885 3.70675 599.278 30.88 513.315 80.1602C427.351 129.44 354.662 199.32 301.629 283.662C248.597 368.004 216.844 464.23 209.158 563.889C201.473 663.548 218.09 763.591 257.55 855.235C297.01 946.879 358.107 1027.32 435.475 1089.49C494.709 1062.81 559.475 1031.66 628.262 996.719C558.688 962.991 499.569 910.635 457.325 845.324C415.08 780.013 391.323 704.243 388.631 626.237C385.939 548.236 404.411 470.973 442.049 402.841C479.686 334.705 535.049 278.301 602.127 239.747C669.208 201.193 745.443 181.962 822.562 184.141C899.682 186.319 974.737 209.824 1039.59 252.104C1104.43 294.385 1156.6 353.828 1190.42 423.979C1224.24 494.13 1238.42 572.314 1231.43 650.047C1295.14 609.17 1354.7 569.37 1409.13 531.321ZM1414.22 600.52C1353.25 646.144 1285.69 693.407 1213.05 741.068C1180.6 844.029 1110.8 930.733 1017.71 983.715C924.608 1036.7 815.126 1052.03 711.299 1026.62C631.671 1065.35 556.119 1098.87 486.94 1126.64C578.955 1185.84 685.103 1218.71 794.108 1221.77C903.112 1224.82 1010.9 1197.94 1106.01 1143.97C1201.12 1090.01 1280 1010.98 1334.27 915.296C1388.53 819.603 1416.16 710.825 1414.22 600.52Z" fill="#1E2124"/>
<path fill-rule="evenodd" clip-rule="evenodd" d="M1444.85 103.916C1453.02 103.916 1461 101.466 1467.79 96.8749C1474.58 92.2841 1479.87 85.759 1483 78.1249C1486.13 70.4908 1486.94 62.0902 1485.35 53.9859C1483.76 45.8816 1479.83 38.4371 1474.05 32.5944C1468.28 26.7513 1460.92 22.7722 1452.91 21.1602C1444.89 19.5482 1436.59 20.3755 1429.05 23.5378C1421.5 26.6999 1415.05 32.0548 1410.51 38.9255C1405.98 45.7958 1403.55 53.8736 1403.55 62.1368C1403.55 67.6254 1404.61 73.0613 1406.68 78.1338C1408.75 83.206 1411.8 87.8146 1415.63 91.6957C1419.47 95.5768 1424.02 98.6541 1429.04 100.751C1434.05 102.848 1439.43 103.924 1444.85 103.916Z" fill="#00CCF5"/>
<path fill-rule="evenodd" clip-rule="evenodd" d="M55.3258 813.772C66.2191 813.772 76.8676 810.503 85.9227 804.376C94.9779 798.249 102.033 789.544 106.194 779.357C110.355 769.17 111.435 757.965 109.298 747.159C107.16 736.352 101.901 726.43 94.1868 718.65C86.4722 710.867 76.6488 705.579 65.9608 703.449C55.2728 701.318 44.2002 702.445 34.1456 706.688C24.091 710.926 15.5062 718.091 9.4783 727.27C3.45041 736.453 0.250461 747.233 0.283642 758.256C0.328014 772.995 6.14664 787.115 16.4642 797.522C26.7818 807.929 40.7567 813.772 55.3258 813.772Z" fill="#00CCF5"/>
<path fill-rule="evenodd" clip-rule="evenodd" d="M984.898 485.762C1044.36 452.518 1102.25 420.973 1158.13 391.857C1160.2 395.248 1162.43 399.263 1164.78 403.786C1109.4 433.07 1051.51 464.731 992.051 498.031L984.898 485.762ZM1757.17 189.122C1730.62 142.594 1569.69 192.005 1341.92 299.704C1344.04 303.266 1346.16 306.941 1348.18 310.672C1566.39 205.574 1718.66 154.975 1738 195.68C1768.39 248.936 1419.48 510.24 959.027 779.291C498.572 1048.34 100.37 1223.26 69.9705 1170C52.6479 1138.34 138.312 1052.07 215.259 983.437C104.449 1073.89 46.3333 1143.6 65.4444 1177.07C108.807 1253.11 528.524 1103.57 995.739 830.851C1462.96 558.125 1800.75 265.162 1757.17 189.122Z" fill="#00CCF5"/>
<path d="M930.189 529.964C920.345 512.871 916.664 492.852 919.777 473.321C922.887 453.787 932.601 435.955 947.257 422.858C961.913 409.76 980.605 402.212 1000.15 401.499C1019.69 400.786 1038.87 406.954 1054.42 418.951C1069.97 430.947 1080.93 448.03 1085.42 467.284C1089.91 486.538 1087.66 506.774 1079.06 524.539C1070.46 542.304 1056.03 556.499 1038.23 564.708C1020.44 572.913 1000.39 574.618 981.486 569.54C970.724 566.82 960.625 561.905 951.804 555.103C942.983 548.297 935.628 539.744 930.189 529.964Z" fill="#FA00E9"/>
</g>
<defs>
<clipPath id="clip0_829_422">
<rect width="1761" height="1222" fill="white"/>
</clipPath>
</defs>
</svg>
