<svg width="201" height="214" viewBox="0 0 201 214" fill="none" xmlns="http://www.w3.org/2000/svg">
<path d="M99.0002 0.00174976C90.7374 0.0422894 82.8466 0.786373 75.9035 2.08361C55.4501 5.89903 51.7366 13.885 51.7366 28.6125V48.0631H100.071V54.5466H51.7366H33.5972C19.55 54.5466 7.24992 63.4617 3.40259 80.4212C-1.03524 99.8608 -1.23209 111.991 3.40259 132.289C6.83834 147.398 15.0434 158.164 29.0906 158.164H45.7089V134.847C45.7089 118.002 59.5122 103.143 75.9035 103.143H124.181C137.62 103.143 148.348 91.4598 148.348 77.2092V28.6125C148.348 14.7816 137.298 4.39193 124.181 2.08361C115.878 0.624215 107.263 -0.0387898 99.0002 0.00174976ZM72.8615 15.6455C77.8541 15.6455 81.9312 20.0208 81.9312 25.4005C81.9312 30.7612 77.8541 35.096 72.8615 35.096C67.8511 35.096 63.7919 30.7612 63.7919 25.4005C63.7919 20.0208 67.8511 15.6455 72.8615 15.6455Z" fill="url(#paint0_linear_908_16)"/>
<path d="M154.376 54.5461V77.2087C154.376 94.7787 140.269 109.567 124.181 109.567H75.9038C62.6797 109.567 51.7368 121.517 51.7368 135.501V184.098C51.7368 197.929 63.1271 206.064 75.9038 210.032C91.2036 214.782 105.875 215.64 124.181 210.032C136.35 206.312 148.348 198.825 148.348 184.098V164.647H100.071V158.164H148.348H172.515C186.562 158.164 191.797 147.818 196.682 132.289C201.728 116.302 201.514 100.929 196.682 80.4208C193.211 65.6551 186.58 54.5461 172.515 54.5461H154.376ZM127.223 177.614C132.234 177.614 136.293 181.949 136.293 187.31C136.293 192.689 132.234 197.065 127.223 197.065C122.231 197.065 118.154 192.689 118.154 187.31C118.154 181.949 122.231 177.614 127.223 177.614Z" fill="url(#paint1_linear_908_16)"/>
<defs>
<linearGradient id="paint0_linear_908_16" x1="1.57755e-07" y1="1.44697e-07" x2="116.504" y2="94.0225" gradientUnits="userSpaceOnUse">
<stop stop-color="#5A9FD4"/>
<stop offset="1" stop-color="#306998"/>
</linearGradient>
<linearGradient id="paint1_linear_908_16" x1="126.062" y1="185.674" x2="83.1461" y2="128.72" gradientUnits="userSpaceOnUse">
<stop stop-color="#FFD43B"/>
<stop offset="1" stop-color="#FFE873"/>
</linearGradient>
</defs>
</svg>
