<svg width="1741" height="1741" viewBox="0 0 1741 1741" fill="none" xmlns="http://www.w3.org/2000/svg">
<path d="M1596.7 237H1174.38C1103.74 236.98 1035.2 260.992 980.026 305.089C924.849 349.185 886.319 410.742 870.768 479.639C855.218 410.742 816.688 349.185 761.511 305.089C706.334 260.992 637.795 236.98 567.16 237H145.128C106.638 237 69.7238 252.289 42.507 279.504C15.2902 306.72 2.95986e-06 343.631 0 382.119V1125.13C-5.86228e-06 1144.19 3.75383 1163.06 11.0472 1180.66C18.3406 1198.27 29.0306 1214.27 42.507 1227.74C55.9834 1241.22 71.9822 1251.91 89.5899 1259.2C107.198 1266.5 126.07 1270.25 145.128 1270.25H416.227C725.06 1270.25 817.361 1344.55 861.48 1497.51C861.941 1499.29 862.997 1500.87 864.474 1501.98C865.951 1503.09 867.762 1503.66 869.607 1503.6H871.349C873.195 1503.66 875.005 1503.09 876.482 1501.98C877.96 1500.87 879.015 1499.29 879.476 1497.51C923.885 1344.55 1016.19 1270.25 1324.73 1270.25H1595.83C1634.32 1270.25 1671.23 1254.96 1698.45 1227.74C1725.67 1200.53 1740.96 1163.62 1740.96 1125.13V382.119C1740.96 343.782 1725.79 307.001 1698.76 279.811C1671.73 252.621 1635.04 237.23 1596.7 237H1596.7ZM731.445 1038.93C731.445 1041.7 730.344 1044.36 728.385 1046.32C726.425 1048.28 723.767 1049.38 720.996 1049.38H236.268C233.497 1049.38 230.839 1048.28 228.88 1046.32C226.92 1044.36 225.819 1041.7 225.819 1038.93V969.852C225.819 967.081 226.92 964.423 228.88 962.464C230.839 960.504 233.497 959.403 236.268 959.403H720.996C723.767 959.403 726.425 960.504 728.385 962.464C730.344 964.423 731.445 967.081 731.445 969.852V1038.93ZM731.445 854.918C731.445 856.29 731.175 857.648 730.65 858.916C730.125 860.184 729.355 861.336 728.385 862.306C727.415 863.276 726.263 864.046 724.995 864.571C723.727 865.096 722.368 865.366 720.996 865.366H236.268C234.896 865.366 233.537 865.096 232.27 864.571C231.002 864.046 229.85 863.276 228.88 862.306C227.909 861.336 227.14 860.184 226.615 858.916C226.09 857.648 225.819 856.29 225.819 854.918V785.841C225.819 784.469 226.09 783.11 226.615 781.842C227.14 780.575 227.909 779.423 228.88 778.453C229.85 777.482 231.002 776.713 232.27 776.188C233.537 775.663 234.896 775.392 236.268 775.392H720.996C722.368 775.392 723.727 775.663 724.995 776.188C726.263 776.713 727.415 777.482 728.385 778.453C729.355 779.423 730.125 780.575 730.65 781.842C731.175 783.11 731.445 784.469 731.445 785.841V854.918ZM731.445 670.906C731.445 672.279 731.175 673.637 730.65 674.905C730.125 676.173 729.355 677.324 728.385 678.295C727.415 679.265 726.263 680.035 724.995 680.56C723.727 681.085 722.368 681.355 720.996 681.355H236.268C234.896 681.355 233.537 681.085 232.27 680.56C231.002 680.035 229.85 679.265 228.88 678.295C227.909 677.324 227.14 676.173 226.615 674.905C226.09 673.637 225.819 672.279 225.819 670.906V601.83C225.819 599.059 226.92 596.401 228.88 594.441C230.839 592.482 233.497 591.381 236.268 591.381H720.996C723.767 591.381 726.425 592.482 728.385 594.441C730.344 596.401 731.445 599.059 731.445 601.83V670.906ZM1515.14 1038.64C1515.14 1040.01 1514.87 1041.37 1514.34 1042.64C1513.82 1043.9 1513.05 1045.06 1512.08 1046.03C1511.11 1047 1509.95 1047.77 1508.69 1048.29C1507.42 1048.82 1506.06 1049.09 1504.69 1049.09H1019.96C1018.59 1049.09 1017.23 1048.82 1015.96 1048.29C1014.69 1047.77 1013.54 1047 1012.57 1046.03C1011.6 1045.06 1010.83 1043.9 1010.31 1042.64C1009.78 1041.37 1009.51 1040.01 1009.51 1038.64V969.562C1009.51 968.19 1009.78 966.831 1010.31 965.563C1010.83 964.296 1011.6 963.144 1012.57 962.174C1013.54 961.203 1014.69 960.434 1015.96 959.909C1017.23 959.384 1018.59 959.113 1019.96 959.113H1504.69C1506.06 959.113 1507.42 959.384 1508.69 959.909C1509.95 960.434 1511.11 961.203 1512.08 962.174C1513.05 963.144 1513.82 964.296 1514.34 965.563C1514.87 966.831 1515.14 968.19 1515.14 969.562V1038.64ZM1515.14 854.627C1515.14 856 1514.87 857.358 1514.34 858.626C1513.82 859.894 1513.05 861.045 1512.08 862.016C1511.11 862.986 1509.95 863.756 1508.69 864.281C1507.42 864.806 1506.06 865.076 1504.69 865.076H1019.96C1018.59 865.076 1017.23 864.806 1015.96 864.281C1014.69 863.756 1013.54 862.986 1012.57 862.016C1011.6 861.045 1010.83 859.894 1010.31 858.626C1009.78 857.358 1009.51 856 1009.51 854.627V785.551C1009.51 784.179 1009.78 782.82 1010.31 781.552C1010.83 780.285 1011.6 779.133 1012.57 778.162C1013.54 777.192 1014.69 776.423 1015.96 775.897C1017.23 775.372 1018.59 775.102 1019.96 775.102H1504.69C1506.06 775.102 1507.42 775.372 1508.69 775.897C1509.95 776.422 1511.11 777.192 1512.08 778.162C1513.05 779.133 1513.82 780.284 1514.34 781.552C1514.87 782.82 1515.14 784.179 1515.14 785.551V854.627ZM1515.14 670.616C1515.14 671.988 1514.87 673.347 1514.34 674.615C1513.82 675.883 1513.05 677.034 1512.08 678.005C1511.11 678.975 1509.95 679.744 1508.69 680.27C1507.42 680.795 1506.06 681.065 1504.69 681.065H1019.96C1018.59 681.065 1017.23 680.795 1015.96 680.27C1014.69 679.744 1013.54 678.975 1012.57 678.005C1011.6 677.034 1010.83 675.882 1010.31 674.615C1009.78 673.347 1009.51 671.988 1009.51 670.616V601.83C1009.51 600.458 1009.78 599.099 1010.31 597.831C1010.83 596.563 1011.6 595.412 1012.57 594.441C1013.54 593.471 1014.69 592.702 1015.96 592.176C1017.23 591.651 1018.59 591.381 1019.96 591.381H1504.69C1506.06 591.381 1507.42 591.651 1508.69 592.176C1509.95 592.702 1511.11 593.471 1512.08 594.441C1513.05 595.412 1513.82 596.563 1514.34 597.831C1514.87 599.099 1515.14 600.458 1515.14 601.83V670.906V670.616Z" fill="#2484C6"/>
</svg>
