<svg width="3937" height="1969" viewBox="0 0 3937 1969" fill="none" xmlns="http://www.w3.org/2000/svg">
<path d="M1768.63 988.691C1769.95 1014.26 1781.37 1038.26 1800.37 1055.42C1819.37 1072.57 1844.4 1081.49 1869.97 1080.19C1890.05 1079.99 1909.87 1075.54 1928.11 1067.12C1946.35 1058.71 1962.6 1046.53 1975.8 1031.38C1976.61 1030.05 1977.71 1028.92 1979.04 1028.09C1980.36 1027.26 1981.86 1026.76 1983.41 1026.61C1984.96 1026.47 1986.53 1026.69 1987.98 1027.25C1989.43 1027.82 1990.73 1028.72 1991.77 1029.89L2028.34 1069.46C2029.6 1070.41 2030.64 1071.62 2031.41 1073.01C2032.17 1074.39 2032.64 1075.92 2032.78 1077.49C2032.92 1079.07 2032.73 1080.65 2032.23 1082.15C2031.72 1083.65 2030.91 1085.02 2029.84 1086.19C2022.22 1098.67 1969.68 1165.45 1861.48 1165.45C1753.28 1165.45 1664.17 1093.8 1664.17 971.963C1663.53 946.893 1667.94 921.95 1677.12 898.615C1686.31 875.28 1700.09 854.028 1717.64 836.121C1735.2 818.214 1756.17 804.017 1779.31 794.371C1802.45 784.725 1827.3 779.828 1852.37 779.97C1971.18 779.97 2030.59 851.624 2030.59 976.582C2030.59 978.221 2030.26 979.845 2029.64 981.359C2029.01 982.874 2028.09 984.25 2026.93 985.409C2025.77 986.568 2024.4 987.488 2022.88 988.115C2021.37 988.743 2019.75 989.065 2018.11 989.065H1768.5L1768.63 988.691ZM1933.99 930.019C1932.49 894.941 1910.4 859.863 1856.24 859.863C1812.06 859.863 1778.49 881.959 1770.13 930.019H1933.87H1933.99Z" fill="#2484C6"/>
<path d="M3623.55 987.318C3624.22 999.991 3627.38 1012.41 3632.85 1023.86C3638.32 1035.31 3645.99 1045.57 3655.43 1054.06C3664.86 1062.54 3675.87 1069.08 3687.83 1073.31C3699.8 1077.54 3712.47 1079.37 3725.14 1078.7C3745.23 1078.49 3765.04 1074.04 3783.28 1065.63C3801.52 1057.21 3817.78 1045.03 3830.97 1029.89C3831.78 1028.55 3832.89 1027.42 3834.21 1026.6C3835.53 1025.77 3837.03 1025.26 3838.58 1025.11C3840.14 1024.97 3841.7 1025.19 3843.16 1025.76C3844.61 1026.33 3845.91 1027.23 3846.95 1028.39L3883.52 1067.96C3884.77 1068.92 3885.82 1070.13 3886.58 1071.51C3887.35 1072.89 3887.82 1074.42 3887.96 1075.99C3888.1 1077.57 3887.91 1079.15 3887.4 1080.65C3886.9 1082.15 3886.08 1083.52 3885.01 1084.69C3877.4 1097.17 3824.86 1163.96 3716.66 1163.96C3608.45 1163.96 3519.35 1092.3 3519.35 970.466C3518.79 945.468 3523.26 920.614 3532.46 897.368C3541.67 874.123 3555.44 852.957 3572.96 835.12C3590.48 817.284 3611.39 803.137 3634.46 793.515C3657.53 783.893 3682.3 778.99 3707.3 779.096C3826.11 779.096 3885.51 850.751 3885.51 975.709C3885.51 977.348 3885.19 978.972 3884.56 980.486C3883.94 982.001 3883.02 983.377 3881.86 984.536C3880.7 985.695 3879.32 986.615 3877.81 987.242C3876.3 987.869 3874.67 988.192 3873.03 988.192H3623.43L3623.55 987.318ZM3788.79 928.896C3787.29 893.818 3765.2 858.74 3711.04 858.74C3666.86 858.74 3633.29 880.836 3624.93 928.896H3788.79Z" fill="#2484C6"/>
<path d="M2391.51 1159.84C2386.75 1160.5 2381.9 1160.05 2377.34 1158.52C2372.79 1157 2368.65 1154.43 2365.25 1151.03C2361.85 1147.63 2359.28 1143.49 2357.76 1138.93C2356.23 1134.37 2355.78 1129.52 2356.44 1124.76V1092.8H2354.2C2343.59 1118.77 2313.01 1165.2 2238.38 1165.2C2132.55 1165.2 2067.78 1085.94 2067.78 973.211C2067.78 849.751 2140.16 778.846 2239.13 778.846C2311.51 778.846 2345.84 818.418 2351.45 832.15H2352.95V796.322C2352.79 794.89 2352.96 793.441 2353.43 792.082C2353.91 790.722 2354.69 789.487 2355.71 788.469C2356.72 787.45 2357.96 786.673 2359.32 786.196C2360.68 785.719 2362.13 785.553 2363.56 785.712H2432.07C2433.49 785.62 2434.91 785.831 2436.24 786.332C2437.57 786.833 2438.77 787.612 2439.78 788.616C2440.78 789.62 2441.56 790.827 2442.06 792.156C2442.56 793.485 2442.77 794.905 2442.68 796.322V1078.7H2471.14C2472.54 1078.5 2473.97 1078.66 2475.31 1079.13C2476.65 1079.61 2477.85 1080.4 2478.82 1081.44C2479.78 1082.48 2480.48 1083.74 2480.86 1085.11C2481.24 1086.48 2481.29 1087.92 2481 1089.31V1148.73C2481.16 1150.1 2481.02 1151.48 2480.6 1152.8C2480.17 1154.11 2479.46 1155.31 2478.53 1156.32C2477.59 1157.33 2476.44 1158.12 2475.16 1158.64C2473.89 1159.17 2472.51 1159.4 2471.14 1159.34H2390.89L2391.51 1159.84ZM2345.84 973.96C2345.84 902.306 2307.02 865.73 2258.47 865.73C2204.44 865.73 2167.87 908.423 2167.87 974.709C2167.87 1041 2206.68 1080.57 2258.47 1080.57C2304.78 1080.57 2345.84 1044.74 2345.84 973.835V973.96Z" fill="#2484C6"/>
<path d="M1639.83 874.344C1654 844.471 1674.74 818.184 1700.49 797.447C1701.37 796.492 1701.99 795.328 1702.29 794.064C1702.6 792.801 1702.57 791.481 1702.22 790.23C1701.87 788.978 1701.21 787.838 1700.29 786.916C1699.38 785.994 1698.24 785.322 1696.99 784.964C1679.89 781.588 1662.51 779.833 1645.07 779.721C1520.9 779.721 1491.19 878.838 1491.19 878.838H1488.2V794.201C1488.2 791.387 1487.08 788.688 1485.09 786.698C1483.1 784.708 1480.4 783.59 1477.59 783.59H1364.02C1362.63 783.59 1361.25 783.865 1359.96 784.398C1358.67 784.931 1357.5 785.713 1356.52 786.698C1355.53 787.684 1354.75 788.853 1354.22 790.141C1353.69 791.428 1353.41 792.808 1353.41 794.201V853.622C1353.25 855.054 1353.42 856.503 1353.9 857.863C1354.37 859.222 1355.15 860.457 1356.17 861.476C1357.19 862.495 1358.42 863.271 1359.78 863.748C1361.14 864.226 1362.59 864.391 1364.02 864.233H1401.46V1077.57H1373.88C1372.44 1077.36 1370.97 1077.49 1369.59 1077.95C1368.2 1078.41 1366.95 1079.19 1365.92 1080.22C1364.89 1081.25 1364.11 1082.5 1363.65 1083.89C1363.19 1085.27 1363.06 1086.74 1363.27 1088.18V1147.6C1363.18 1149.02 1363.39 1150.44 1363.89 1151.77C1364.39 1153.1 1365.17 1154.31 1366.18 1155.31C1367.18 1156.32 1368.39 1157.09 1369.71 1157.59C1371.04 1158.1 1372.46 1158.31 1373.88 1158.22H1528.63C1530.03 1158.22 1531.41 1157.94 1532.69 1157.41C1533.98 1156.87 1535.15 1156.09 1536.14 1155.11C1537.12 1154.12 1537.9 1152.95 1538.43 1151.66C1538.97 1150.38 1539.24 1149 1539.24 1147.6V1088.18C1539.24 1086.79 1538.97 1085.41 1538.43 1084.12C1537.9 1082.84 1537.12 1081.67 1536.14 1080.68C1535.15 1079.7 1533.98 1078.91 1532.69 1078.38C1531.41 1077.85 1530.03 1077.57 1528.63 1077.57H1502.3V984.572C1502.3 932.766 1564.7 873.346 1631.97 879.712C1633.68 879.76 1635.36 879.267 1636.77 878.303C1638.18 877.339 1639.25 875.953 1639.83 874.344V874.344Z" fill="#2484C6"/>
<path d="M2869.63 1077.07V675.359C2869.84 673.917 2869.71 672.446 2869.25 671.064C2868.79 669.681 2868.01 668.424 2866.98 667.394C2865.95 666.363 2864.7 665.588 2863.31 665.128C2861.93 664.669 2860.46 664.539 2859.02 664.749H2746.7C2745.21 664.494 2743.68 664.585 2742.23 665.014C2740.78 665.444 2739.45 666.2 2738.34 667.226C2737.24 668.251 2736.38 669.518 2735.83 670.928C2735.29 672.338 2735.08 673.855 2735.22 675.359V734.78C2735.08 736.285 2735.29 737.801 2735.83 739.211C2736.38 740.622 2737.24 741.888 2738.34 742.914C2739.45 743.939 2740.78 744.696 2742.23 745.125C2743.68 745.555 2745.21 745.646 2746.7 745.391H2771.66V800.318C2771.66 816.296 2773.16 831.526 2773.16 831.526H2771.66C2764.79 817.045 2735.09 777.473 2666.58 777.473C2560.74 777.473 2492.85 856.742 2492.85 968.718C2492.85 1092.93 2565.24 1163.08 2664.2 1163.08C2735.84 1163.08 2773.16 1116.65 2779.27 1101.42H2780.77V1138.87C2780.77 1144.03 2782.82 1148.98 2786.47 1152.64C2790.12 1156.29 2795.07 1158.34 2800.24 1158.34H2853.9C2857.97 1158.34 2861.88 1156.72 2864.76 1153.84C2867.64 1150.96 2869.25 1147.06 2869.25 1142.99V1077.45L2869.63 1077.07ZM2683.8 1077.82C2629.01 1077.82 2593.19 1033.63 2593.19 968.094C2593.19 902.556 2632.01 862.984 2683.8 862.984C2730.22 862.984 2771.16 897.313 2771.16 968.843C2771.16 1040.37 2733.34 1077.82 2683.8 1077.82Z" fill="#2484C6"/>
<path d="M3502.12 1078.07H3474.04V912.669C3474.04 834.148 3429.86 778.598 3347.62 778.598C3265.37 778.598 3239.41 831.153 3232.55 841.014C3214.2 802.94 3176.89 778.598 3122.85 778.598C3038.23 778.598 3011.65 837.269 3007.78 844.135H3005.54V799.944C3005.95 797.688 3005.79 795.366 3005.08 793.186C3004.37 791.006 3003.13 789.036 3001.47 787.453C2999.82 785.869 2997.79 784.721 2995.58 784.113C2993.37 783.504 2991.05 783.454 2988.81 783.965H2933.9C2929.5 783.965 2925.28 785.715 2922.16 788.828C2919.05 791.942 2917.3 796.165 2917.3 800.568V1135.87C2917.3 1138.89 2917.9 1141.87 2919.05 1144.66C2920.2 1147.45 2921.9 1149.98 2924.03 1152.11C2926.16 1154.25 2928.69 1155.94 2931.48 1157.09C2934.26 1158.25 2937.25 1158.84 2940.27 1158.84H3045.72C3048.54 1158.84 3051.23 1157.72 3053.22 1155.73C3055.21 1153.74 3056.33 1151.04 3056.33 1148.23V1088.68C3056.54 1087.24 3056.41 1085.77 3055.95 1084.39C3055.49 1083 3054.72 1081.75 3053.69 1080.72C3052.66 1079.69 3051.4 1078.91 3050.02 1078.45C3048.63 1077.99 3047.16 1077.86 3045.72 1078.07H3019.26V916.414C3023.27 901.807 3032.04 888.959 3044.18 879.911C3056.33 870.863 3071.14 866.136 3086.28 866.48C3135.08 866.48 3148.68 898.438 3148.68 945V1149.48C3148.67 1150.65 3148.88 1151.82 3149.32 1152.91C3149.76 1154 3150.41 1154.99 3151.23 1155.83C3152.06 1156.66 3153.04 1157.33 3154.12 1157.78C3155.21 1158.23 3156.37 1158.47 3157.54 1158.47H3277.6C3279.02 1158.56 3280.44 1158.35 3281.77 1157.84C3283.1 1157.34 3284.3 1156.57 3285.31 1155.56C3286.31 1154.56 3287.09 1153.35 3287.59 1152.02C3288.09 1150.69 3288.3 1149.27 3288.21 1147.85V1088.68C3288.42 1087.24 3288.29 1085.77 3287.83 1084.39C3287.37 1083 3286.6 1081.75 3285.57 1080.72C3284.54 1079.69 3283.28 1078.91 3281.9 1078.45C3280.52 1077.99 3279.05 1077.86 3277.6 1078.07H3250.27V924.902C3249.9 920.025 3249.15 915.184 3248.03 910.422C3252.62 897.413 3261.22 886.198 3272.59 878.392C3283.96 870.585 3297.51 866.589 3311.3 866.98C3359.35 866.98 3373.7 898.937 3373.7 945.5V1123.76C3373.7 1128.37 3374.61 1132.93 3376.37 1137.19C3378.13 1141.44 3380.72 1145.31 3383.97 1148.57C3387.23 1151.82 3391.09 1154.41 3395.35 1156.17C3399.6 1157.93 3404.16 1158.84 3408.77 1158.84H3502.37C3503.76 1158.84 3505.14 1158.57 3506.43 1158.03C3507.72 1157.5 3508.89 1156.72 3509.87 1155.73C3510.86 1154.75 3511.64 1153.58 3512.17 1152.29C3512.7 1151 3512.98 1149.62 3512.98 1148.23V1088.68C3513.2 1087.22 3513.07 1085.72 3512.59 1084.31C3512.12 1082.91 3511.32 1081.64 3510.26 1080.6C3509.2 1079.56 3507.91 1078.79 3506.5 1078.36C3505.08 1077.92 3503.58 1077.82 3502.12 1078.07H3502.12Z" fill="#2484C6"/>
<path d="M1060.8 583H792.921C748.116 582.987 704.641 598.223 669.642 626.203C634.642 654.183 610.202 693.241 600.338 736.957C590.475 693.241 566.035 654.183 531.035 626.203C496.036 598.223 452.561 582.987 407.756 583H140.056C115.642 583 92.2266 592.701 74.9627 609.97C57.6988 627.238 48 650.659 48 675.08V1146.53C48 1158.62 50.3811 1170.59 55.0074 1181.77C59.6336 1192.94 66.4145 1203.09 74.9627 1211.64C83.5109 1220.19 93.6591 1226.97 104.828 1231.6C115.997 1236.23 127.967 1238.61 140.056 1238.61H312.018C507.914 1238.61 566.462 1285.75 594.447 1382.81C594.739 1383.94 595.409 1384.94 596.346 1385.64C597.283 1386.35 598.431 1386.71 599.602 1386.67H600.707C601.877 1386.71 603.026 1386.35 603.963 1385.64C604.9 1384.94 605.57 1383.94 605.862 1382.81C634.031 1285.75 692.579 1238.61 888.291 1238.61H1060.25C1084.67 1238.61 1108.08 1228.91 1125.35 1211.64C1142.61 1194.37 1152.31 1170.95 1152.31 1146.53V675.08C1152.31 650.754 1142.69 627.417 1125.54 610.164C1108.4 592.912 1085.12 583.146 1060.8 583H1060.8ZM511.964 1091.83C511.964 1093.59 511.266 1095.28 510.023 1096.52C508.78 1097.76 507.094 1098.46 505.336 1098.46H197.868C196.11 1098.46 194.424 1097.76 193.181 1096.52C191.938 1095.28 191.24 1093.59 191.24 1091.83V1048C191.24 1046.24 191.938 1044.56 193.181 1043.32C194.424 1042.07 196.11 1041.37 197.868 1041.37H505.336C507.094 1041.37 508.78 1042.07 510.023 1043.32C511.266 1044.56 511.964 1046.24 511.964 1048V1091.83ZM511.964 975.076C511.964 975.946 511.793 976.809 511.46 977.613C511.127 978.417 510.638 979.148 510.023 979.764C509.408 980.379 508.677 980.868 507.873 981.201C507.069 981.534 506.207 981.706 505.336 981.706H197.868C196.997 981.706 196.136 981.534 195.331 981.201C194.527 980.868 193.797 980.379 193.181 979.764C192.566 979.148 192.077 978.417 191.744 977.613C191.411 976.809 191.24 975.946 191.24 975.076V931.246C191.24 930.375 191.411 929.513 191.744 928.709C192.077 927.904 192.566 927.173 193.181 926.558C193.797 925.942 194.527 925.454 195.331 925.121C196.136 924.788 196.997 924.616 197.868 924.616H505.336C506.207 924.616 507.069 924.788 507.873 925.121C508.677 925.454 509.408 925.942 510.023 926.558C510.638 927.173 511.127 927.904 511.46 928.709C511.793 929.513 511.964 930.375 511.964 931.246V975.076ZM511.964 858.319C511.964 859.189 511.793 860.051 511.46 860.856C511.127 861.66 510.638 862.391 510.023 863.007C509.408 863.622 508.677 864.11 507.873 864.444C507.069 864.777 506.207 864.948 505.336 864.948H197.868C196.997 864.948 196.136 864.777 195.331 864.444C194.527 864.11 193.797 863.622 193.181 863.007C192.566 862.391 192.077 861.66 191.744 860.856C191.411 860.051 191.24 859.189 191.24 858.319V814.489C191.24 812.73 191.938 811.044 193.181 809.801C194.424 808.557 196.11 807.859 197.868 807.859H505.336C507.094 807.859 508.78 808.557 510.023 809.801C511.266 811.044 511.964 812.73 511.964 814.489V858.319ZM1009.07 1091.65C1009.07 1092.52 1008.9 1093.38 1008.56 1094.19C1008.23 1094.99 1007.74 1095.72 1007.13 1096.34C1006.51 1096.95 1005.78 1097.44 1004.98 1097.77C1004.17 1098.11 1003.31 1098.28 1002.44 1098.28H694.972C694.102 1098.28 693.24 1098.11 692.436 1097.77C691.632 1097.44 690.901 1096.95 690.286 1096.34C689.67 1095.72 689.182 1094.99 688.849 1094.19C688.516 1093.38 688.344 1092.52 688.344 1091.65V1047.82C688.344 1046.95 688.516 1046.09 688.849 1045.28C689.182 1044.48 689.67 1043.75 690.286 1043.13C690.901 1042.52 691.632 1042.03 692.436 1041.69C693.24 1041.36 694.102 1041.19 694.972 1041.19H1002.44C1003.31 1041.19 1004.17 1041.36 1004.98 1041.69C1005.78 1042.03 1006.51 1042.52 1007.13 1043.13C1007.74 1043.75 1008.23 1044.48 1008.56 1045.28C1008.9 1046.09 1009.07 1046.95 1009.07 1047.82V1091.65ZM1009.07 974.892C1009.07 975.762 1008.9 976.624 1008.56 977.429C1008.23 978.233 1007.74 978.964 1007.13 979.58C1006.51 980.195 1005.78 980.684 1004.98 981.017C1004.17 981.35 1003.31 981.521 1002.44 981.521H694.972C694.102 981.521 693.24 981.35 692.436 981.017C691.632 980.684 690.901 980.195 690.286 979.58C689.67 978.964 689.182 978.233 688.849 977.429C688.516 976.624 688.344 975.762 688.344 974.892V931.062C688.344 930.191 688.516 929.329 688.849 928.525C689.182 927.72 689.67 926.989 690.286 926.374C690.901 925.758 691.632 925.27 692.436 924.937C693.24 924.603 694.102 924.432 694.972 924.432H1002.44C1003.31 924.432 1004.17 924.603 1004.98 924.937C1005.78 925.27 1006.51 925.758 1007.13 926.374C1007.74 926.989 1008.23 927.72 1008.56 928.525C1008.9 929.329 1009.07 930.191 1009.07 931.062V974.892ZM1009.07 858.134C1009.07 859.005 1008.9 859.867 1008.56 860.672C1008.23 861.476 1007.74 862.207 1007.13 862.822C1006.51 863.438 1005.78 863.926 1004.98 864.26C1004.17 864.593 1003.31 864.764 1002.44 864.764H694.972C694.102 864.764 693.24 864.593 692.436 864.26C691.632 863.926 690.901 863.438 690.286 862.822C689.67 862.207 689.182 861.476 688.849 860.672C688.516 859.867 688.344 859.005 688.344 858.134V814.489C688.344 813.618 688.516 812.756 688.849 811.952C689.182 811.147 689.67 810.416 690.286 809.801C690.901 809.185 691.632 808.697 692.436 808.364C693.24 808.03 694.102 807.859 694.972 807.859H1002.44C1003.31 807.859 1004.17 808.03 1004.98 808.364C1005.78 808.697 1006.51 809.185 1007.13 809.801C1007.74 810.416 1008.23 811.147 1008.56 811.952C1008.9 812.756 1009.07 813.618 1009.07 814.489V858.319V858.134Z" fill="#2484C6"/>
</svg>
