<svg width="4025" height="879" viewBox="0 0 4025 879" fill="none" xmlns="http://www.w3.org/2000/svg">
<path d="M829.344 772.885L930.818 693.313C959.341 742.703 1004.87 771.239 1056.98 771.239C1113.47 771.239 1143.64 734.471 1143.64 694.41C1143.64 646.667 1085.5 631.301 1023.52 612.094C945.628 587.948 858.415 557.766 858.415 446.364C858.415 353.073 939.595 278.988 1052.04 278.988C1146.93 278.988 1201.23 314.659 1248.41 363.5L1156.8 432.645C1132.67 396.975 1098.66 377.768 1053.14 377.768C1001.58 377.768 973.602 405.755 973.602 442.523C973.602 486.974 1029.55 502.339 1091.53 523.193C1170.52 548.985 1259.92 583.558 1259.92 695.508C1259.92 788.251 1186.42 877.152 1058.07 877.152C952.21 877.701 882.001 832.702 829.344 772.885ZM1721.22 470.511H1829.83V514.961C1855.61 482.035 1894.55 462.279 1940.08 462.279C2033.87 462.279 2090.92 522.644 2090.92 625.814V868.921H1979.57V640.082C1979.57 586.851 1954.89 555.571 1906.07 555.571C1864.38 555.571 1830.38 584.107 1830.38 651.057V868.921H1721.22V470.511V470.511ZM2116.15 670.264C2116.15 529.229 2219.82 462.828 2309.77 462.828C2361.33 462.828 2402.47 482.035 2428.8 510.022V287.22H2537.95V869.469H2428.8V825.019C2402.47 856.299 2360.24 877.701 2308.68 877.701C2223.66 877.701 2116.15 810.202 2116.15 670.264ZM2431.54 669.167C2431.54 609.899 2388.76 562.156 2329.52 562.156C2269.18 562.156 2222.56 607.704 2222.56 669.167C2222.56 730.63 2268.64 776.727 2329.52 776.727C2388.76 776.727 2431.54 728.434 2431.54 669.167ZM2563.18 578.619C2563.18 412.889 2688.25 279.537 2860.48 279.537C2946.59 279.537 3019 310.817 3071.65 360.207C3093.05 380.512 3111.15 403.56 3125.41 428.804L3028.32 488.071C2992.67 421.67 2937.27 387.646 2861.57 387.646C2755.71 387.646 2673.44 474.352 2673.44 579.168C2673.44 686.179 2754.07 770.69 2865.41 770.69C2949.88 770.69 3009.67 722.947 3030.52 648.862H2847.86V542.949H3150.09V587.399C3150.09 743.8 3038.74 878.25 2865.41 878.25C2683.31 877.701 2563.18 739.41 2563.18 578.619ZM3177.52 470.511H3286.12V535.815C3305.87 494.108 3342.07 470.511 3396.37 470.511H3440.25L3400.76 576.424H3371.14C3313 576.424 3287.22 606.607 3287.22 680.691V868.921H3178.07V470.511H3177.52ZM3468.23 470.511H3577.38V869.469H3468.23V576.973H3428.73L3468.23 470.511ZM3523.08 410.145C3559.28 410.145 3588.35 381.06 3588.35 344.841C3588.35 308.622 3559.28 279.537 3523.08 279.537C3486.88 279.537 3457.81 308.622 3457.81 344.841C3457.81 380.512 3486.88 410.145 3523.08 410.145ZM3603.16 670.264C3603.16 529.229 3706.83 462.828 3796.78 462.828C3848.34 462.828 3889.48 482.035 3915.81 510.022V287.22H4024.97V869.469H3915.81V825.019C3889.48 856.299 3847.25 877.701 3795.69 877.701C3710.67 877.701 3603.16 810.202 3603.16 670.264ZM3919.1 669.167C3919.1 609.899 3876.32 562.156 3817.08 562.156C3756.74 562.156 3710.12 607.704 3710.12 669.167C3710.12 730.63 3756.2 776.727 3817.08 776.727C3875.77 776.727 3919.1 728.434 3919.1 669.167ZM1695.44 669.167C1695.44 554.473 1611.52 462.828 1489.75 462.828C1375.11 462.828 1282.41 555.571 1282.41 670.264C1282.41 784.958 1368.53 877.701 1493.04 877.701C1579.16 877.701 1641.14 835.994 1675.7 776.727L1589.03 725.142C1570.93 760.263 1535.28 782.214 1493.59 782.214C1436 782.214 1400.34 753.678 1387.73 709.776H1695.44V669.167ZM1392.66 621.423C1409.67 584.107 1444.22 558.314 1490.85 558.314C1536.92 558.314 1571.48 579.717 1585.74 621.423H1392.66Z" fill="black"/>
<path d="M939.594 30.3938V165.941H908.329V30.3938H860.061V2.95508H988.412V29.845H939.594V30.3938Z" fill="black"/>
<path d="M1216.59 165.941H1186.97L1150.77 47.4057L1114.57 165.941H1084.95L1039.42 2.40625L1072.33 2.95502L1102.5 118.198L1136.51 2.95502H1167.77L1201.78 118.198L1231.4 2.95502H1262.67L1216.59 165.941Z" fill="black"/>
<path d="M1325.2 165.941V2.95508H1356.46V165.941H1325.2Z" fill="black"/>
<path d="M1429.41 165.941V2.95508H1460.68V138.502H1514.98L1515.53 165.941H1429.41Z" fill="black"/>
<path d="M1580.25 165.941V2.95508H1611.52V165.941H1580.25Z" fill="black"/>
<path d="M1754.68 169.233C1708.61 169.233 1678.44 135.209 1678.44 84.7222C1678.44 34.235 1708.61 0.210938 1755.23 0.210938C1801.85 0.210938 1831.47 34.235 1831.47 84.7222C1830.92 134.661 1801.3 169.233 1754.68 169.233ZM1754.68 26.0033C1726.71 26.0033 1710.25 49.0519 1710.25 84.7222C1710.25 120.393 1727.26 143.441 1754.68 143.441C1782.65 143.441 1799.66 120.393 1799.66 84.7222C1799.66 49.0519 1782.65 26.0033 1754.68 26.0033Z" fill="black"/>
<path d="M465.682 633.496H233.113V866.177H465.682V633.496Z" fill="#99E1F4"/>
<path d="M233.113 400.814H0.544922V633.495H233.113V400.814Z" fill="#99E1F4"/>
<path d="M233.113 633.496H0.544922V866.177H233.113V633.496Z" fill="#1A82E2"/>
<path d="M698.798 400.814H466.23V633.495H698.798V400.814Z" fill="#00B2E3"/>
<path d="M465.682 167.586H233.113V400.266H465.682V167.586Z" fill="#00B2E3"/>
<path d="M233.113 400.814V633.495H466.23V400.814H233.113Z" fill="#009DD9"/>
<path d="M698.798 167.586H466.23V400.266H698.798V167.586Z" fill="#1A82E2"/>
</svg>
