<svg width="1741" height="1741" viewBox="0 0 1741 1741" fill="none" xmlns="http://www.w3.org/2000/svg">
<rect width="1741" height="1741" fill="white"/>
<path d="M433.939 1069.83C433.939 1157.46 363.115 1228.29 275.486 1228.29C187.857 1228.29 117.033 1157.46 117.033 1069.83C117.033 982.205 187.857 911.381 275.486 911.381H433.939V1069.83Z" fill="#E01E5A"/>
<path d="M513.166 1069.83C513.166 982.205 583.989 911.381 671.619 911.381C759.248 911.381 830.072 982.205 830.072 1069.83V1465.97C830.072 1553.6 759.248 1624.42 671.619 1624.42C583.989 1624.42 513.166 1553.6 513.166 1465.97V1069.83Z" fill="#E01E5A"/>
<path d="M671.619 433.619C583.989 433.619 513.166 362.796 513.166 275.166C513.166 187.537 583.989 116.713 671.619 116.713C759.248 116.713 830.072 187.537 830.072 275.166V433.619H671.619Z" fill="#36C5F0"/>
<path d="M671.619 514.047C759.248 514.047 830.072 584.871 830.072 672.5C830.072 760.129 759.248 830.953 671.619 830.953H274.286C186.656 830.953 115.833 760.129 115.833 672.5C115.833 584.871 186.656 514.047 274.286 514.047H671.619Z" fill="#36C5F0"/>
<path d="M1306.63 672.5C1306.63 584.871 1377.46 514.047 1465.08 514.047C1552.71 514.047 1623.54 584.871 1623.54 672.5C1623.54 760.129 1552.71 830.953 1465.08 830.953H1306.63V672.5Z" fill="#2EB67D"/>
<path d="M1227.4 672.499C1227.4 760.128 1156.58 830.952 1068.95 830.952C981.322 830.952 910.499 760.128 910.499 672.499V275.166C910.499 187.537 981.322 116.713 1068.95 116.713C1156.58 116.713 1227.4 187.537 1227.4 275.166V672.499Z" fill="#2EB67D"/>
<path d="M1068.95 1307.51C1156.58 1307.51 1227.4 1378.34 1227.4 1465.97C1227.4 1553.6 1156.58 1624.42 1068.95 1624.42C981.322 1624.42 910.499 1553.6 910.499 1465.97V1307.51H1068.95Z" fill="#ECB22E"/>
<path d="M1068.95 1228.29C981.323 1228.29 910.499 1157.46 910.499 1069.83C910.499 982.205 981.323 911.381 1068.95 911.381H1466.29C1553.91 911.381 1624.74 982.205 1624.74 1069.83C1624.74 1157.46 1553.91 1228.29 1466.29 1228.29H1068.95Z" fill="#ECB22E"/>
</svg>
