<svg width="3953" height="1616" viewBox="0 0 3953 1616" fill="none" xmlns="http://www.w3.org/2000/svg">
<rect width="3952.98" height="1616" fill="white"/>
<path d="M1334.04 1067.63L1378.59 964.165C1426.73 1000.09 1490.68 1018.77 1553.91 1018.77C1600.62 1018.77 1630.08 1000.81 1630.08 973.506C1629.36 897.341 1350.57 956.98 1348.41 765.848C1347.69 668.846 1433.92 594.118 1556.07 594.118C1628.64 594.118 1701.21 612.081 1752.95 653.038L1711.27 758.663C1663.85 728.484 1604.93 706.928 1548.88 706.928C1510.8 706.928 1485.65 724.892 1485.65 747.885C1486.37 822.613 1767.32 781.656 1770.19 964.165C1770.19 1063.32 1686.12 1133.02 1565.41 1133.02C1477.03 1133.02 1395.83 1112.18 1334.04 1067.63Z" fill="black"/>
<path d="M3043.44 926.801C3021.17 965.602 2979.49 992.188 2931.35 992.188C2860.22 992.188 2802.73 934.705 2802.73 863.57C2802.73 792.434 2860.22 734.951 2931.35 734.951C2979.49 734.951 3021.17 761.537 3043.44 800.338L3166.31 732.077C3120.33 650.164 3031.95 594.118 2931.35 594.118C2782.61 594.118 2661.9 714.832 2661.9 863.57C2661.9 1012.31 2782.61 1133.02 2931.35 1133.02C3032.67 1133.02 3120.33 1077.69 3166.31 995.062L3043.44 926.801Z" fill="black"/>
<path d="M1985.75 370.651H1831.99V1122.96H1985.75V370.651Z" fill="black"/>
<path d="M3226.67 370.651V1122.96H3380.44V897.34L3562.95 1122.96H3759.83L3527.74 854.946L3742.58 604.895H3554.32L3380.44 812.553V370.651H3226.67Z" fill="black"/>
<path d="M2442.74 928.238C2420.47 964.884 2374.48 992.188 2322.75 992.188C2251.61 992.188 2194.13 934.705 2194.13 863.57C2194.13 792.434 2251.61 734.951 2322.75 734.951C2374.48 734.951 2420.47 763.693 2442.74 801.057V928.238ZM2442.74 604.896V665.972C2417.6 623.578 2355.08 594.118 2289.7 594.118C2154.61 594.118 2048.27 713.395 2048.27 862.851C2048.27 1012.31 2154.61 1133.02 2289.7 1133.02C2355.08 1133.02 2417.6 1103.56 2442.74 1061.17V1122.24H2596.51V604.896H2442.74Z" fill="black"/>
<path d="M383.413 927.521C383.413 979.975 341.019 1022.37 288.566 1022.37C236.112 1022.37 193.718 979.975 193.718 927.521C193.718 875.068 236.112 832.674 288.566 832.674H383.413V927.521Z" fill="#E01E5A"/>
<path d="M430.836 927.521C430.836 875.068 473.23 832.674 525.683 832.674C578.137 832.674 620.531 875.068 620.531 927.521V1164.64C620.531 1217.09 578.137 1259.49 525.683 1259.49C473.23 1259.49 430.836 1217.09 430.836 1164.64V927.521Z" fill="#E01E5A"/>
<path d="M525.683 546.694C473.23 546.694 430.836 504.301 430.836 451.847C430.836 399.394 473.23 357 525.683 357C578.137 357 620.531 399.394 620.531 451.847V546.694H525.683Z" fill="#36C5F0"/>
<path d="M525.683 594.837C578.137 594.837 620.531 637.231 620.531 689.684C620.531 742.137 578.137 784.531 525.683 784.531H287.847C235.394 784.531 193 742.137 193 689.684C193 637.231 235.394 594.837 287.847 594.837H525.683Z" fill="#36C5F0"/>
<path d="M905.79 689.684C905.79 637.231 948.184 594.837 1000.64 594.837C1053.09 594.837 1095.48 637.231 1095.48 689.684C1095.48 742.137 1053.09 784.531 1000.64 784.531H905.79V689.684Z" fill="#2EB67D"/>
<path d="M858.367 689.684C858.367 742.137 815.973 784.531 763.52 784.531C711.067 784.531 668.673 742.137 668.673 689.684V451.847C668.673 399.394 711.067 357 763.52 357C815.973 357 858.367 399.394 858.367 451.847V689.684Z" fill="#2EB67D"/>
<path d="M763.52 1069.79C815.973 1069.79 858.367 1112.19 858.367 1164.64C858.367 1217.09 815.973 1259.49 763.52 1259.49C711.067 1259.49 668.673 1217.09 668.673 1164.64V1069.79H763.52Z" fill="#ECB22E"/>
<path d="M763.52 1022.37C711.067 1022.37 668.673 979.975 668.673 927.521C668.673 875.068 711.067 832.674 763.52 832.674H1001.36C1053.81 832.674 1096.2 875.068 1096.2 927.521C1096.2 979.975 1053.81 1022.37 1001.36 1022.37H763.52Z" fill="#ECB22E"/>
</svg>
