<svg width="1704" height="1596" viewBox="0 0 1704 1596" fill="none" xmlns="http://www.w3.org/2000/svg">
<path d="M730.049 84.1418L665.977 0.75293L365.023 232.019L64.0726 0.756368L0 84.1418L211.458 246.627L218.293 251.885H32.0311V1466.43H154.716V1471.69V1595.24H365.026V1471.69V1466.43H1385.03V1471.69V1595.24H1595.34V1471.69V1466.43H1704V251.885H511.749L518.584 246.627L730.049 84.1418ZM1486.67 761.015C1540.88 761.015 1584.81 804.961 1584.81 859.157C1584.81 913.353 1540.87 957.302 1486.67 957.302C1432.47 957.302 1388.53 913.367 1388.53 859.157C1388.53 804.947 1432.48 761.015 1486.67 761.015ZM1388.53 533.175C1388.53 478.969 1432.48 435.034 1486.68 435.034C1540.88 435.034 1584.82 478.979 1584.82 533.175C1584.82 587.372 1540.88 631.317 1486.68 631.317C1432.48 631.317 1388.53 587.385 1388.53 533.175ZM1223.78 1314.04H193.266V404.288H1223.78V1314.04Z" fill="black"/>
</svg>
