<svg width="3983" height="1195" viewBox="0 0 3983 1195" fill="none" xmlns="http://www.w3.org/2000/svg">
<path d="M573.552 450.117C573.552 517.833 517.79 573.6 450.079 573.6C382.368 573.6 326.606 517.833 326.606 450.117C326.606 382.4 382.368 326.633 450.079 326.633C517.79 326.633 573.552 382.4 573.552 450.117V450.117ZM450.079 621.4C382.368 621.4 326.606 677.167 326.606 744.883C326.606 812.6 382.368 868.367 450.079 868.367C517.79 868.367 573.552 812.6 573.552 744.883C573.552 677.167 517.79 621.4 450.079 621.4V621.4ZM1194.9 597.5C1194.9 928.117 928.039 1195 597.45 1195C266.861 1195 0 928.117 0 597.5C0 266.883 266.861 0 597.45 0C928.039 0 1194.9 266.883 1194.9 597.5ZM1035.58 597.5C1035.58 354.517 840.413 159.333 597.45 159.333C354.487 159.333 159.32 354.517 159.32 597.5C159.32 840.483 354.487 1035.67 597.45 1035.67C840.413 1035.67 1035.58 840.483 1035.58 597.5ZM744.821 621.4C677.11 621.4 621.348 677.167 621.348 744.883C621.348 812.6 677.11 868.367 744.821 868.367C812.532 868.367 868.294 812.6 868.294 744.883C868.294 677.167 812.532 621.4 744.821 621.4ZM744.821 326.633C677.11 326.633 621.348 382.4 621.348 450.117C621.348 517.833 677.11 573.6 744.821 573.6C812.532 573.6 868.294 517.833 868.294 450.117C868.294 382.4 812.532 326.633 744.821 326.633ZM2800.05 235.017C2804.03 235.017 2808.02 239 2812 242.983V370.45C2812 378.417 2804.03 382.4 2800.05 382.4H2588.95C2580.98 382.4 2577 374.433 2577 370.45V246.967C2577 239 2584.97 235.017 2588.95 235.017H2800.05V235.017ZM2796.07 414.267H2389.8C2385.82 414.267 2377.85 418.25 2377.85 426.217L2326.07 625.383L2322.09 637.333L2258.36 426.217C2258.36 422.233 2250.4 414.267 2246.41 414.267H2087.09C2083.11 414.267 2075.14 418.25 2075.14 426.217L2015.4 625.383L2011.42 637.333L2007.43 625.383L1983.53 525.8L1959.64 426.217C1959.64 422.233 1951.67 414.267 1947.69 414.267H1629.05V242.983C1629.05 239 1621.08 231.033 1613.12 235.017L1413.97 298.75C1406 298.75 1402.02 302.733 1402.02 310.7V418.25H1350.24C1346.25 418.25 1338.29 422.233 1338.29 430.2V581.567C1338.29 585.55 1342.27 593.517 1350.24 593.517H1402.02V780.733C1402.02 912.183 1473.71 971.933 1605.15 971.933C1660.91 971.933 1712.69 959.983 1748.54 940.067V780.733C1748.54 772.767 1740.57 768.783 1736.59 772.767C1716.67 780.733 1696.76 784.717 1680.83 784.717C1644.98 784.717 1625.06 768.783 1625.06 728.95V593.517H1740.57C1744.55 593.517 1752.52 589.533 1752.52 581.567V454.1L1903.87 956C1903.87 959.983 1911.84 967.95 1915.82 967.95H2083.11C2087.09 967.95 2095.06 963.967 2095.06 956L2166.75 732.933L2202.6 848.45L2234.46 956C2234.46 959.983 2242.43 967.95 2246.41 967.95H2413.7C2417.68 967.95 2425.65 963.967 2425.65 956L2577 454.1V956C2577 959.983 2580.98 967.95 2588.95 967.95H2792.08C2796.07 967.95 2804.03 963.967 2804.03 956V426.217C2804.03 422.233 2800.05 414.267 2796.07 414.267V414.267ZM3062.93 235.017H2859.79C2855.81 235.017 2847.85 239 2847.85 246.967V952.017C2847.85 956 2851.83 963.967 2859.79 963.967H3062.93C3066.91 963.967 3074.88 959.983 3074.88 952.017V242.983C3074.88 239 3070.89 235.017 3062.93 235.017V235.017ZM3333.77 235.017H3122.67C3118.69 235.017 3110.72 239 3110.72 246.967V370.45C3110.72 374.433 3114.71 382.4 3122.67 382.4H3333.77C3337.75 382.4 3345.72 378.417 3345.72 370.45V242.983C3345.72 239 3341.74 235.017 3333.77 235.017V235.017ZM3329.79 414.267H3126.66C3122.67 414.267 3114.71 418.25 3114.71 426.217V948.033C3114.71 952.017 3118.69 959.983 3126.66 959.983H3329.79C3333.77 959.983 3341.74 956 3341.74 948.033V426.217C3341.74 422.233 3337.75 414.267 3329.79 414.267ZM3971.05 685.133C3971.05 836.5 3843.6 967.95 3664.36 967.95C3489.11 967.95 3361.65 836.5 3361.65 685.133C3361.65 533.767 3489.11 402.317 3668.34 402.317C3843.6 402.317 3971.05 533.767 3971.05 685.133V685.133ZM3755.97 689.117C3755.97 633.35 3716.14 589.533 3668.34 593.517C3616.56 593.517 3580.72 637.333 3580.72 689.117C3580.72 740.9 3620.55 784.717 3668.34 784.717C3720.12 784.717 3755.97 740.9 3755.97 689.117Z" fill="#F22F46"/>
</svg>
