<svg width="1720" height="1720" viewBox="0 0 1720 1720" fill="none" xmlns="http://www.w3.org/2000/svg">
<path d="M1681.02 318.519C1654 330.502 1626.22 340.617 1597.83 348.831C1631.44 310.823 1657.06 266.103 1672.7 217.167C1676.21 206.199 1672.57 194.193 1663.56 187.017C1654.55 179.838 1642.04 178.978 1632.13 184.854C1571.84 220.607 1506.81 246.303 1438.61 261.326C1369.92 194.203 1276.62 156 1180.16 156C976.565 156 810.925 321.637 810.925 525.228C810.925 541.262 811.939 557.209 813.948 572.934C561.304 550.752 326.424 426.573 165.134 228.723C159.386 221.672 150.531 217.869 141.464 218.598C132.394 219.307 124.241 224.423 119.659 232.288C86.9451 288.419 69.6511 352.62 69.6511 417.943C69.6511 506.912 101.414 591.323 157.525 657.284C140.463 651.375 123.908 643.991 108.106 635.22C99.6233 630.497 89.2698 630.57 80.8411 635.401C72.4091 640.235 67.1215 649.121 66.8964 658.836C66.8561 660.472 66.8561 662.108 66.8561 663.768C66.8561 796.567 138.33 916.13 247.607 981.294C238.217 980.357 228.838 978.997 219.516 977.216C209.904 975.379 200.025 978.748 193.544 986.078C187.054 993.402 184.904 1003.61 187.897 1012.93C228.344 1139.21 332.481 1232.1 458.373 1260.42C353.957 1325.82 234.552 1360.07 109.204 1360.07C83.0482 1360.07 56.7444 1358.54 31.0016 1355.49C18.2125 1353.97 5.98447 1361.52 1.62738 1373.68C-2.72971 1385.85 1.88941 1399.42 12.767 1406.39C173.798 1509.64 359.994 1564.21 551.219 1564.21C927.142 1564.21 1162.31 1386.94 1293.39 1238.23C1456.85 1052.8 1550.59 807.357 1550.59 564.844C1550.59 554.713 1550.43 544.483 1550.12 534.284C1614.61 485.698 1670.13 426.896 1715.31 359.312C1722.17 349.049 1721.43 335.481 1713.48 326.034C1705.55 316.571 1692.31 313.514 1681.02 318.519Z" fill="#73A1FB"/>
</svg>
