<svg width="3953" height="897" viewBox="0 0 3953 897" fill="none" xmlns="http://www.w3.org/2000/svg">
<path d="M2292.67 353.073H2137.06V369.582C2185.73 369.582 2193.56 380.015 2193.56 441.746V553.034C2193.56 614.758 2185.74 626.061 2137.06 626.061C2099.69 620.849 2074.47 600.848 2039.7 562.595L1999.71 519.13C2053.61 509.554 2082.29 475.657 2082.29 437.397C2082.29 389.591 2041.44 353.073 1964.93 353.073H1811.94V369.582C1860.61 369.582 1868.44 380.015 1868.44 441.746V553.034C1868.44 614.758 1860.61 626.061 1811.94 626.061V642.578H1984.93V626.061C1936.25 626.061 1928.43 614.758 1928.43 553.034V521.743H1943.2L2039.7 642.578H2292.67C2416.97 642.578 2470.87 576.512 2470.87 497.386C2470.87 418.275 2416.98 353.073 2292.67 353.073ZM1928.43 494.773V379.158H1964.07C2003.18 379.158 2020.58 406.107 2020.58 437.405C2020.58 467.838 2003.18 494.78 1964.07 494.78H1928.43V494.773ZM2295.28 615.629H2289.19C2257.9 615.629 2253.55 607.81 2253.55 567.815V379.158C2253.55 379.158 2291.8 379.158 2295.28 379.158C2385.69 379.158 2402.19 445.224 2402.19 496.522C2402.19 549.549 2385.68 615.629 2295.28 615.629Z" fill="#00749A"/>
<path d="M1327.75 526.956L1387.74 349.588C1405.13 298.297 1397.3 283.523 1341.67 283.523V266.128H1505.1V283.523C1450.33 283.523 1437.3 296.562 1415.56 360.028L1316.45 657.359H1305.16L1216.48 385.234L1126.08 657.359H1114.78L1018.29 360.028C997.422 296.562 983.514 283.523 933.091 283.523V266.128H1126.08V283.523C1074.78 283.523 1060.87 295.69 1079.13 349.588L1137.37 526.956L1225.17 266.128H1241.7L1327.75 526.956Z" fill="#00749A"/>
<path d="M1623.31 653.874C1527.69 653.874 1449.45 583.46 1449.45 497.379C1449.45 412.184 1527.7 341.755 1623.31 341.755C1718.93 341.755 1797.17 412.184 1797.17 497.379C1797.17 583.46 1718.93 653.874 1623.31 653.874ZM1623.31 368.726C1543.34 368.726 1515.51 440.875 1515.51 497.386C1515.51 554.776 1543.34 626.061 1623.31 626.061C1704.16 626.061 1731.98 554.776 1731.98 497.386C1731.98 440.875 1704.16 368.726 1623.31 368.726Z" fill="#00749A"/>
<path d="M2685.58 625.191V642.578H2486.51V625.191C2544.76 625.191 2555.19 610.417 2555.19 523.464V384.371C2555.19 297.419 2544.76 283.516 2486.51 283.516V266.121H2666.45C2755.99 266.121 2805.55 312.2 2805.55 373.939C2805.55 433.927 2755.99 480.87 2666.45 480.87H2616.9V523.457C2616.9 610.417 2627.33 625.191 2685.58 625.191ZM2666.45 297.419H2616.9V448.701H2666.45C2715.14 448.701 2737.74 414.797 2737.74 373.939C2737.74 332.208 2715.14 297.419 2666.45 297.419Z" fill="#464342"/>
<path d="M3402.75 560.86L3398.4 576.505C3390.58 605.196 3381.01 615.629 3319.29 615.629H3307.12C3261.92 615.629 3254.09 605.196 3254.09 543.472V503.485C3321.9 503.485 3327.12 509.561 3327.12 554.776H3343.64V425.23H3327.12C3327.12 470.437 3321.9 476.521 3254.09 476.521V379.158H3301.9C3363.63 379.158 3373.18 389.591 3381.01 418.282L3385.36 434.791H3399.27L3393.19 353.073H3137.61V369.582C3186.28 369.582 3194.11 380.015 3194.11 441.746V553.034C3194.11 609.501 3187.46 623.726 3149.08 625.754C3112.61 620.183 3087.56 600.284 3053.3 562.595L3013.31 519.13C3067.21 509.554 3095.89 475.657 3095.89 437.397C3095.89 389.591 3055.04 353.073 2978.54 353.073H2825.55V369.582C2874.22 369.582 2882.04 380.015 2882.04 441.746V553.034C2882.04 614.758 2874.23 626.061 2825.55 626.061V642.578H2998.54V626.061C2949.87 626.061 2942.03 614.758 2942.03 553.034V521.743H2956.81L3053.3 642.578H3410.58L3415.8 560.867H3402.75V560.86ZM2942.03 494.773V379.158H2977.66C3016.78 379.158 3034.18 406.107 3034.18 437.405C3034.18 467.838 3016.78 494.78 2977.66 494.78H2942.03V494.773Z" fill="#464342"/>
<path d="M3579.21 653.875C3544.44 653.875 3514.01 635.623 3500.97 624.312C3496.63 628.668 3488.81 641.707 3487.07 653.875H3470.55V533.912H3487.94C3494.9 591.287 3534.88 625.191 3586.17 625.191C3613.99 625.191 3636.59 609.546 3636.59 583.468C3636.59 560.868 3616.6 543.473 3580.96 526.957L3531.41 503.485C3496.63 486.954 3470.55 458.263 3470.55 420.018C3470.55 378.288 3509.67 342.649 3563.57 342.649C3592.26 342.649 3616.59 353.081 3631.38 365.249C3635.72 361.771 3640.07 352.203 3642.68 341.763H3659.2V444.36H3640.94C3634.85 403.494 3612.25 369.59 3566.18 369.59C3541.84 369.59 3519.23 383.5 3519.23 405.244C3519.23 427.844 3537.49 440.012 3579.22 459.141L3627.02 482.613C3668.76 502.607 3685.26 534.79 3685.26 560.868C3685.26 615.629 3637.46 653.875 3579.21 653.875Z" fill="#464342"/>
<path d="M3846.96 653.875C3812.18 653.875 3781.75 635.623 3768.72 624.312C3764.37 628.668 3756.55 641.707 3754.82 653.875H3738.29V533.912H3755.68C3762.63 591.287 3802.62 625.191 3853.91 625.191C3881.73 625.191 3904.33 609.546 3904.33 583.468C3904.33 560.868 3884.34 543.473 3848.69 526.957L3799.14 503.485C3764.37 486.954 3738.29 458.263 3738.29 420.018C3738.29 378.288 3777.41 342.649 3831.31 342.649C3859.99 342.649 3884.33 353.081 3899.11 365.249C3903.46 361.771 3907.8 352.203 3910.4 341.763H3926.92V444.36H3908.68C3902.58 403.494 3879.99 369.59 3833.92 369.59C3809.58 369.59 3786.97 383.5 3786.97 405.244C3786.97 427.844 3805.22 440.012 3846.96 459.141L3894.76 482.613C3936.49 502.607 3953 534.79 3953 560.868C3953 615.629 3905.19 653.875 3846.96 653.875Z" fill="#464342"/>
<path d="M63.7458 448.489C63.7458 600.782 152.242 732.393 280.568 794.762L97.0535 291.906C75.7073 339.757 63.7458 392.71 63.7458 448.489Z" fill="#464342"/>
<path d="M708.173 429.074C708.173 381.523 691.094 348.593 676.446 322.962C656.945 291.269 638.666 264.43 638.666 232.737C638.666 197.369 665.488 164.446 703.268 164.446C704.974 164.446 706.591 164.658 708.253 164.753C639.808 102.041 548.618 63.752 448.461 63.752C314.059 63.752 195.813 132.716 127.023 237.174C136.049 237.444 144.555 237.635 151.781 237.635C192.021 237.635 254.31 232.752 254.31 232.752C275.048 231.529 277.493 261.992 256.777 264.445C256.777 264.445 235.936 266.897 212.745 268.112L352.842 684.865L437.033 432.339L377.094 268.098C356.378 266.882 336.752 264.43 336.752 264.43C316.02 263.215 318.451 231.514 339.182 232.737C339.182 232.737 402.716 237.62 440.518 237.62C480.751 237.62 543.047 232.737 543.047 232.737C563.8 231.514 566.238 261.977 545.514 264.43C545.514 264.43 524.629 266.882 501.482 268.098L640.51 681.695L678.884 553.451C695.516 500.234 708.173 462.011 708.173 429.074Z" fill="#464342"/>
<path d="M455.21 482.144L339.782 817.588C374.247 827.72 410.695 833.262 448.461 833.262C493.261 833.262 536.224 825.517 576.216 811.453C575.183 809.806 574.246 808.056 573.478 806.152L455.21 482.144Z" fill="#464342"/>
<path d="M786.032 263.896C787.686 276.151 788.624 289.307 788.624 303.459C788.624 342.502 781.332 386.392 759.371 441.271L641.857 781.064C756.231 714.361 833.161 590.437 833.161 448.496C833.168 381.604 816.082 318.701 786.032 263.896Z" fill="#464342"/>
<path d="M448.461 0C201.186 0 0 201.19 0 448.489C0 695.817 201.186 897 448.461 897C695.728 897 896.943 695.817 896.943 448.489C896.936 201.19 695.728 0 448.461 0ZM448.461 876.442C212.525 876.442 20.5629 684.462 20.5629 448.489C20.5629 212.531 212.518 20.5649 448.461 20.5649C684.389 20.5649 876.336 212.531 876.336 448.489C876.336 684.462 684.389 876.442 448.461 876.442Z" fill="#464342"/>
</svg>
