<svg width="1741" height="1741" viewBox="0 0 1741 1741" fill="none" xmlns="http://www.w3.org/2000/svg">
<g clip-path="url(#clip0_827_76)">
<path d="M123.733 870.534C123.733 1166.14 295.507 1421.6 544.593 1542.66L188.384 566.601C146.951 659.48 123.733 762.265 123.733 870.534Z" fill="#464342"/>
<path d="M1374.59 832.847C1374.59 740.55 1341.44 676.631 1313.01 626.88C1275.15 565.363 1239.67 513.268 1239.67 451.75C1239.67 383.1 1291.74 319.195 1365.07 319.195C1368.38 319.195 1371.52 319.607 1374.75 319.792C1241.89 198.065 1064.89 123.744 870.479 123.744C609.599 123.744 380.08 257.607 246.557 460.362C264.076 460.888 280.587 461.257 294.612 461.257C372.719 461.257 493.625 451.779 493.625 451.779C533.879 449.406 538.625 508.535 498.413 513.296C498.413 513.296 457.96 518.057 412.945 520.415L684.879 1329.35L848.298 839.185L731.954 520.387C691.742 518.028 653.648 513.268 653.648 513.268C613.407 510.909 618.125 449.377 658.365 451.75C658.365 451.75 781.686 461.229 855.062 461.229C933.155 461.229 1054.07 451.75 1054.07 451.75C1094.36 449.377 1099.09 508.507 1058.86 513.268C1058.86 513.268 1018.32 518.028 973.395 520.387L1243.25 1323.19L1317.74 1074.27C1350.02 970.973 1374.59 896.78 1374.59 832.847Z" fill="#464342"/>
<path d="M883.579 935.859L659.53 1586.97C726.427 1606.64 797.174 1617.39 870.479 1617.39C957.438 1617.39 1040.83 1602.36 1118.46 1575.06C1116.45 1571.86 1114.63 1568.47 1113.14 1564.77L883.579 935.859Z" fill="#464342"/>
<path d="M1525.72 512.23C1528.93 536.019 1530.75 561.555 1530.75 589.024C1530.75 664.808 1516.6 750 1473.97 856.522L1245.87 1516.07C1467.87 1386.6 1617.2 1146.06 1617.2 870.548C1617.21 740.707 1584.05 618.61 1525.72 512.23Z" fill="#464342"/>
<path d="M870.479 0C390.509 0 0 390.518 0 870.534C0 1350.61 390.509 1741.11 870.479 1741.11C1350.43 1741.11 1741 1350.61 1741 870.534C1740.99 390.518 1350.43 0 870.479 0ZM870.479 1701.21C412.519 1701.21 39.9134 1328.57 39.9134 870.534C39.9134 412.53 412.505 39.9172 870.479 39.9172C1328.42 39.9172 1701 412.53 1701 870.534C1701 1328.57 1328.42 1701.21 870.479 1701.21Z" fill="#464342"/>
</g>
<defs>
<clipPath id="clip0_827_76">
<rect width="1741" height="1741" fill="white"/>
</clipPath>
</defs>
</svg>
