<svg width="1704" height="1193" viewBox="0 0 1704 1193" fill="none" xmlns="http://www.w3.org/2000/svg">
<path d="M1668.57 186.801C1648.93 113.841 1591.39 56.3146 1518.42 36.6715C1385.12 0.191406 851.876 0.191406 851.876 0.191406C851.876 0.191406 318.636 0.191406 185.327 35.2684C113.76 54.9115 54.8233 113.841 35.1776 186.801C0.0960693 320.094 0.0960693 596.5 0.0960693 596.5C0.0960693 596.5 0.0960693 874.31 35.1776 1006.2C54.8233 1079.16 112.357 1136.69 185.327 1156.33C320.04 1192.81 851.876 1192.81 851.876 1192.81C851.876 1192.81 1385.12 1192.81 1518.42 1157.73C1591.39 1138.09 1648.93 1080.56 1668.57 1007.6C1703.66 874.31 1703.66 597.903 1703.66 597.903C1703.66 597.903 1705.06 320.094 1668.57 186.801V186.801Z" fill="#FF0000"/>
<path d="M682.081 341.141V851.862L1125.51 596.501L682.081 341.141Z" fill="white"/>
</svg>
