<svg width="3988" height="890" viewBox="0 0 3988 890" fill="none" xmlns="http://www.w3.org/2000/svg">
<path d="M1244.58 139.357C1229.92 84.9272 1187.01 42.0115 1132.58 27.3574C1033.15 0.142578 635.407 0.142578 635.407 0.142578C635.407 0.142578 237.668 0.142578 138.234 26.3107C84.8528 40.9648 40.8922 84.9272 26.2387 139.357C0.0716553 238.795 0.0716553 445 0.0716553 445C0.0716553 445 0.0716553 652.251 26.2387 750.643C40.8922 805.073 83.8062 847.988 138.234 862.643C238.715 889.857 635.407 889.857 635.407 889.857C635.407 889.857 1033.15 889.857 1132.58 863.689C1187.01 849.035 1229.92 806.12 1244.58 751.69C1270.74 652.251 1270.74 446.047 1270.74 446.047C1270.74 446.047 1271.79 238.795 1244.58 139.357V139.357Z" fill="#FF0000"/>
<path d="M508.759 254.496V635.503L839.51 445L508.759 254.496Z" fill="white"/>
<path d="M1845.37 810.305C1820.25 793.557 1802.46 767.389 1791.99 730.754C1781.52 695.165 1776.29 647.016 1776.29 588.399V507.802C1776.29 448.139 1782.57 399.989 1794.08 363.354C1806.64 326.719 1825.48 300.551 1850.6 283.803C1876.77 267.055 1910.27 258.682 1952.13 258.682C1992.95 258.682 2026.45 267.055 2051.57 283.803C2076.69 300.551 2094.48 327.765 2105.99 363.354C2117.51 398.943 2123.79 447.092 2123.79 507.802V588.399C2123.79 648.063 2118.56 695.165 2107.04 731.801C2095.53 767.389 2077.73 794.604 2052.61 811.352C2027.49 828.099 1992.95 836.473 1950.04 836.473C1906.08 835.426 1870.49 827.052 1845.37 810.305V810.305ZM1986.67 722.38C1994 704.586 1997.14 674.231 1997.14 633.409V459.653C1997.14 419.877 1994 390.569 1986.67 371.728C1979.35 352.887 1967.83 344.513 1950.04 344.513C1933.29 344.513 1920.73 353.933 1914.45 371.728C1907.13 390.569 1903.99 419.877 1903.99 459.653V633.409C1903.99 674.231 1907.13 704.586 1914.45 722.38C1920.73 740.174 1933.29 749.595 1951.09 749.595C1967.83 749.595 1979.35 741.221 1986.67 722.38Z" fill="#282828"/>
<path d="M3777.55 589.448V617.709C3777.55 653.298 3778.59 680.513 3780.69 698.307C3782.78 716.101 3786.97 729.709 3794.29 737.036C3800.57 745.41 3811.04 749.596 3825.69 749.596C3844.53 749.596 3857.09 742.269 3864.42 727.615C3871.75 712.961 3874.89 688.887 3875.93 654.345L3983.74 660.625C3984.79 665.859 3984.79 672.139 3984.79 680.513C3984.79 731.802 3971.18 770.531 3942.92 795.652C3914.66 820.774 3874.89 833.334 3823.6 833.334C3761.84 833.334 3718.93 813.447 3693.81 774.718C3668.69 735.989 3656.13 676.326 3656.13 594.681V497.336C3656.13 413.598 3668.69 352.888 3694.86 314.16C3721.02 275.431 3764.99 256.59 3826.74 256.59C3869.65 256.59 3903.15 264.964 3926.17 280.664C3949.2 296.365 3964.9 321.487 3974.32 353.935C3983.74 387.43 3987.93 433.486 3987.93 492.103V587.354H3777.55V589.448ZM3793.25 354.982C3786.97 363.356 3782.78 375.916 3780.69 393.711C3778.59 411.505 3777.55 438.72 3777.55 475.355V515.13H3869.65V475.355C3869.65 439.766 3868.61 412.552 3866.51 393.711C3864.42 374.87 3859.19 362.309 3852.91 354.982C3846.63 347.655 3836.16 343.468 3823.6 343.468C3808.95 342.421 3799.53 346.608 3793.25 354.982Z" fill="#282828"/>
<path d="M1539.74 578.98L1397.39 62.9453H1521.95L1572.19 296.365C1584.75 353.934 1594.17 403.13 1600.45 443.953H1603.59C1607.77 414.644 1617.19 366.495 1631.85 297.411L1684.18 62.9453H1808.74L1664.3 578.98V826.007H1540.79V578.98H1539.74Z" fill="#282828"/>
<path d="M2528.85 269.15V827.054H2430.47L2420 759.017H2416.86C2390.69 810.306 2349.87 836.474 2296.49 836.474C2259.86 836.474 2232.64 823.914 2214.85 799.839C2197.06 775.764 2188.68 738.082 2188.68 685.746V269.15H2314.28V678.419C2314.28 703.541 2317.42 721.335 2322.66 731.802C2327.89 742.269 2337.31 747.503 2349.87 747.503C2360.34 747.503 2370.81 744.363 2381.27 737.036C2391.74 730.755 2399.07 722.382 2403.25 711.914V269.15H2528.85Z" fill="#282828"/>
<path d="M3172.56 269.15V827.054H3074.18L3063.71 759.017H3060.57C3034.4 810.306 2993.58 836.474 2940.2 836.474C2903.57 836.474 2876.35 823.914 2858.56 799.839C2840.77 775.764 2832.39 738.082 2832.39 685.746V269.15H2957.99V678.419C2957.99 703.541 2961.13 721.335 2966.37 731.802C2971.6 742.269 2981.02 747.503 2993.58 747.503C3004.05 747.503 3014.51 744.363 3024.98 737.036C3035.45 730.755 3042.77 722.382 3046.96 711.914V269.15H3172.56Z" fill="#282828"/>
<path d="M2870.07 164.477H2745.52V826.007H2623.06V164.477H2498.5V62.9453H2870.07V164.477Z" fill="#282828"/>
<path d="M3588.1 358.121C3580.77 322.533 3568.21 297.411 3551.46 281.71C3534.71 266.009 3510.64 257.636 3481.33 257.636C3458.31 257.636 3436.33 263.916 3416.44 277.523C3396.55 290.084 3380.85 307.878 3370.39 328.813H3369.34V34.6836H3247.92V826.006H3351.55L3364.11 773.67H3367.25C3376.67 792.511 3391.32 807.165 3411.21 818.679C3431.09 829.147 3452.03 835.427 3476.1 835.427C3519.01 835.427 3549.37 815.539 3569.26 776.81C3589.14 738.082 3599.61 676.325 3599.61 593.634V505.709C3598.56 441.859 3595.42 392.663 3588.1 358.121V358.121ZM3472.96 585.26C3472.96 626.082 3470.87 657.484 3467.73 680.512C3464.59 703.54 3458.31 720.287 3450.98 729.708C3442.61 739.128 3432.14 744.362 3419.58 744.362C3409.11 744.362 3399.69 742.269 3391.32 737.035C3382.95 731.801 3375.62 724.474 3370.39 715.054V398.943C3374.57 384.289 3381.9 371.729 3392.37 361.261C3402.83 351.841 3414.35 346.607 3425.86 346.607C3438.42 346.607 3448.89 351.841 3455.17 361.261C3462.49 371.729 3466.68 388.476 3469.82 411.504C3472.96 435.579 3474.01 469.074 3474.01 511.989V585.26H3472.96Z" fill="#282828"/>
</svg>
