<svg width="1776" height="1776" viewBox="0 0 1776 1776" fill="none" xmlns="http://www.w3.org/2000/svg">
<path d="M1108.83 888.074C1108.84 952.016 1097.29 1015.43 1074.75 1075.27C1014.89 1097.81 951.452 1109.36 887.487 1109.38H886.707C822.742 1109.39 759.301 1097.84 699.441 1075.3C676.863 1015.45 665.298 952.011 665.304 888.046V887.21C665.304 821.309 677.398 758.195 699.302 699.957C759.173 677.383 822.637 665.837 886.623 665.878H887.347C953.28 665.878 1016.37 677.971 1074.61 699.957C1097.18 759.807 1108.73 823.247 1108.69 887.21V888.046H1108.78L1108.83 888.074ZM1761.64 739.832H1243.99L1609.99 373.825C1552.44 293.002 1481.78 222.366 1400.93 164.837L1034.87 530.844V13.1958C986.2 5.00863 936.928 0.879695 887.57 0.851562H886.623C836.407 0.851562 787.222 5.14277 739.291 13.1958V530.844L373.148 164.809C332.825 193.507 294.98 225.534 260.009 260.554L259.841 260.721C224.872 295.715 192.872 333.556 164.174 373.853L530.317 739.832H12.5504C12.5504 739.832 0.234131 837.081 0.234131 887.349V887.962C0.234131 938.231 4.49701 987.496 12.5784 1035.45H530.345L164.146 1401.4C221.742 1482.22 292.406 1552.86 373.232 1610.45L739.319 1244.47V1762.14C787.194 1770.17 836.295 1774.4 886.456 1774.46H887.71C937.011 1774.41 986.224 1770.3 1034.85 1762.14V1244.47L1400.96 1610.53C1441.29 1581.81 1479.16 1549.78 1514.18 1514.79H1514.27C1549.22 1479.75 1581.21 1441.89 1609.91 1401.57L1243.9 1035.48H1761.67C1769.7 987.552 1773.93 938.454 1773.93 888.296V887.015C1773.93 837.694 1769.81 788.512 1761.67 739.887V739.832H1761.64Z" fill="#FF4A00"/>
</svg>
