<svg width="4009" height="1836" viewBox="0 0 4009 1836" fill="none" xmlns="http://www.w3.org/2000/svg">
<g clip-path="url(#clip0_829_403)">
<path d="M2405.66 798.459H2305.74C2303.68 790.281 2302.15 780.796 2301.13 770.029C2299.1 749.072 2299.1 727.968 2301.13 707.012C2302.15 696.268 2303.68 686.792 2305.74 678.566H2554.78V1467.11C2542.31 1469.28 2529.74 1470.81 2517.11 1471.69C2504.58 1472.66 2492.01 1473.16 2479.43 1473.22C2467.38 1473.14 2455.34 1472.63 2443.33 1471.69C2430.71 1470.8 2418.15 1469.26 2405.69 1467.08V798.427V798.443L2405.66 798.459ZM3272.63 996.763C3272.63 968.06 3268.78 940.657 3261.11 914.504C3253.42 888.391 3242.11 865.597 3227.29 846.115C3212.4 826.664 3193.46 811.022 3170.4 799.245C3147.35 787.459 3119.92 781.558 3088.16 781.558C3025.65 781.558 2977.73 800.543 2944.43 838.442C2911.13 876.349 2890.9 929.119 2883.71 996.763H3272.63H3272.63ZM2882.18 1110.5C2884.23 1196.57 2906.52 1259.61 2949.05 1299.55C2991.56 1339.51 3054.34 1359.52 3137.36 1359.52C3210.09 1359.52 3279.27 1346.69 3344.86 1321.08C3353.04 1336.45 3359.69 1355.15 3364.83 1377.18C3369.86 1398.63 3372.95 1420.5 3374.05 1442.5C3340.25 1456.89 3303.07 1467.6 3262.62 1474.79C3222.11 1481.94 3177.28 1485.55 3128.13 1485.55C3056.37 1485.55 2994.87 1475.53 2943.66 1455.56C2892.41 1435.56 2850.13 1407.38 2816.83 1371.02C2783.53 1334.65 2759.18 1291.61 2743.81 1241.9C2728.45 1192.21 2720.74 1137.64 2720.74 1078.2C2720.74 1019.8 2728.16 965.222 2743.03 914.488C2757.86 863.793 2780.71 819.721 2811.42 782.32C2842.18 744.902 2880.86 715.197 2927.49 693.165C2974.1 671.133 3029.18 660.101 3092.74 660.101C3147.05 660.101 3194.7 669.338 3235.7 687.778C3276.68 706.218 3311.02 731.585 3338.7 763.863C3366.36 796.15 3387.36 834.578 3401.72 879.131C3416.05 923.724 3423.25 972.133 3423.25 1024.41C3423.25 1038.76 3422.71 1053.86 3421.69 1069.74C3420.85 1083.33 3419.83 1096.9 3418.63 1110.47H2882.15L2882.17 1110.49L2882.18 1110.5ZM3590.89 678.566C3601.59 676.624 3612.36 675.089 3623.17 673.964C3633.4 672.961 3644.18 672.44 3655.45 672.44C3666.73 672.44 3677.98 672.961 3689.27 673.964C3700.54 675.006 3710.79 676.545 3720.02 678.566C3723.07 693.943 3726.15 714.203 3729.21 739.282C3732.28 764.393 3733.85 785.639 3733.85 803.069C3755.36 768.241 3783.8 737.991 3819.14 712.367C3854.5 686.767 3899.84 673.94 3955.17 673.94C3963.37 673.94 3971.82 674.212 3980.54 674.725C3987.99 675.126 3995.45 675.88 4002.83 677.01C4004.86 686.246 4006.43 695.996 4007.44 706.226C4008.45 716.464 4008.97 727.232 4008.97 738.496C4008.97 750.803 4008.21 763.623 4006.67 776.916C4005.2 789.764 4003.41 802.575 4001.3 815.336C3993 813.291 3984.48 812.26 3975.93 812.265H3955.16C3927.5 812.265 3901.1 816.113 3876 823.786C3850.87 831.483 3828.34 845.064 3808.36 864.515C3788.39 883.997 3772.49 910.647 3760.73 944.465C3748.92 978.283 3743.04 1021.83 3743.04 1075.11V1467.08C3730.57 1469.25 3718 1470.8 3705.37 1471.69C3691.56 1472.71 3679 1473.21 3667.73 1473.21C3655.16 1473.16 3642.59 1472.65 3630.06 1471.69C3616.93 1470.73 3603.85 1469.2 3590.85 1467.09V678.574L3590.89 678.566ZM2512.04 257.52C2512.04 275.918 2508.72 294.165 2502.23 311.382C2485.01 317.867 2466.76 321.191 2448.35 321.195H2448.13C2429.72 321.197 2411.47 317.876 2394.25 311.39C2387.75 294.17 2384.42 275.917 2384.42 257.512V257.272C2384.42 238.31 2387.9 220.151 2394.21 203.394C2411.43 196.899 2429.69 193.577 2448.1 193.589H2448.31C2467.28 193.589 2485.44 197.069 2502.19 203.394C2508.69 220.615 2512.01 238.868 2512 257.272V257.512H2512.02L2512.04 257.52ZM2699.87 214.867H2550.93L2656.23 109.558C2639.68 86.3031 2619.34 65.9794 2596.08 49.4269L2490.76 154.736V5.79588C2476.75 3.44023 2462.58 2.25223 2448.38 2.24414H2448.1C2433.66 2.24414 2419.5 3.47883 2405.71 5.79588V154.736L2300.36 49.4189C2288.76 57.6759 2277.87 66.8908 2267.81 76.9669L2267.76 77.015C2257.7 87.0837 2248.49 97.9715 2240.24 109.566L2345.59 214.867H2196.61C2196.61 214.867 2193.07 242.848 2193.07 257.312V257.488C2193.07 271.952 2194.29 286.127 2196.62 299.925H2345.59L2240.23 405.218C2256.8 428.47 2277.13 448.797 2300.39 465.365L2405.72 360.064V509.012C2419.5 511.321 2433.62 512.54 2448.06 512.556H2448.42C2462.6 512.543 2476.76 511.358 2490.75 509.012V360.064L2596.09 465.389C2607.7 457.125 2618.59 447.91 2628.67 437.841H2628.69C2638.75 427.762 2647.95 416.866 2656.21 405.266L2550.9 299.933H2699.88C2702.19 286.143 2703.4 272.016 2703.4 257.584V257.216C2703.4 243.025 2702.22 228.874 2699.88 214.883V214.867H2699.87ZM0 1445.6L415.044 799.998H49.1824C46.1195 781.558 44.5881 761.081 44.5881 738.528C44.5881 717.017 46.1436 697.014 49.2145 678.558H641.023L648.72 698.577L230.606 1345.68H622.574C625.645 1366.18 627.192 1387.17 627.192 1408.68C627.192 1429.21 625.653 1448.67 622.582 1467.11H7.69728L0 1445.57V1445.6ZM1197.46 1096.65C1182.09 1094.62 1162.61 1092.6 1139.05 1090.52C1115.47 1088.49 1095.49 1087.45 1079.12 1087.45C1015.57 1087.45 967.147 1099.23 933.864 1122.81C900.534 1146.39 883.912 1182.24 883.912 1230.4C883.912 1261.14 889.525 1285.22 900.806 1302.64C912.063 1320.08 926.167 1333.38 943.077 1342.6C959.995 1351.82 978.677 1357.47 999.163 1359.52C1019.65 1361.57 1039.13 1362.58 1057.57 1362.58C1081.15 1362.58 1105.48 1361.3 1130.59 1358.74C1155.69 1356.19 1177.98 1352.34 1197.46 1347.21V1096.65H1197.46ZM1197.46 947.576C1197.46 887.092 1182.09 845.08 1151.35 821.509C1120.6 797.938 1076.02 786.152 1017.61 786.152C981.716 786.152 948.177 788.99 916.93 794.618C886.01 800.168 855.458 807.603 825.445 816.883C805.961 783.065 796.26 742.617 796.26 695.45C831.058 684.194 869.48 675.487 911.518 669.338C953.533 663.18 994.007 660.101 1032.97 660.101C1135.44 660.101 1213.32 683.432 1266.61 730.054C1319.88 776.715 1346.55 851.254 1346.55 953.709V1447.12C1310.66 1455.31 1267.12 1463.76 1215.89 1472.48C1164.08 1481.23 1111.64 1485.6 1059.1 1485.55C1008.89 1485.55 963.523 1480.95 923.064 1471.73C882.573 1462.48 848.24 1447.66 820.065 1427.13C791.858 1406.66 770.113 1380.52 754.718 1348.76C739.356 1316.99 731.667 1278.57 731.667 1233.47C731.667 1189.42 740.631 1150.73 758.567 1117.41C776.191 1084.49 801.184 1056.08 831.595 1034.41C862.336 1012.41 897.687 995.993 937.657 985.25C977.635 974.482 1019.63 969.095 1063.7 969.095C1096.49 969.095 1123.39 969.88 1144.41 971.42C1165.4 972.943 1183.09 974.739 1197.44 976.791V947.584L1197.46 947.576ZM1664.75 1337.96C1684.15 1345.13 1704.24 1350.28 1724.7 1353.34C1745.2 1356.43 1771.82 1357.96 1804.64 1357.96C1841.53 1357.96 1875.33 1352.08 1906.07 1340.3C1936.83 1328.53 1963.21 1310.33 1985.24 1285.72C2007.27 1261.14 2024.69 1230.16 2037.5 1192.72C2050.31 1155.34 2056.73 1111.04 2056.73 1059.77C2056.73 977.802 2041.59 912.732 2011.38 864.563C1981.13 816.41 1931.68 792.325 1863.05 792.325C1837.43 792.325 1812.81 796.928 1789.28 806.164C1765.68 815.384 1744.68 829.222 1726.24 847.662C1707.79 866.102 1692.94 889.433 1681.67 917.606C1670.37 945.812 1664.75 979.341 1664.75 1018.29V1337.99V1337.97L1664.75 1337.96ZM1512.56 678.55C1522.99 676.497 1533.49 674.966 1544.07 673.948C1555.06 672.931 1566.1 672.422 1577.13 672.424C1587.35 672.424 1598.1 672.953 1609.4 673.948C1620.65 674.99 1631.41 676.537 1641.68 678.558C1642.69 680.642 1643.99 687.016 1645.53 697.783C1647.05 708.551 1648.59 720.072 1650.14 732.355C1651.68 744.662 1653.21 756.471 1654.75 767.712C1656.29 779 1657.06 786.176 1657.06 789.247C1667.28 772.867 1679.59 756.968 1693.94 741.599C1708.29 726.221 1725.47 712.391 1745.45 700.109C1765.44 687.802 1787.97 678.077 1813.09 670.893C1838.18 663.725 1866.11 660.109 1896.86 660.109C1942.96 660.109 1985.75 667.806 2025.23 683.184C2064.66 698.577 2098.45 722.365 2126.65 754.651C2154.82 786.938 2176.85 827.931 2192.75 877.615C2208.62 927.356 2216.56 986.012 2216.56 1053.63C2216.56 1188.89 2179.92 1294.72 2106.63 1371.04C2033.35 1447.39 1929.62 1485.55 1795.37 1485.55C1772.82 1485.55 1749.78 1484.01 1726.2 1480.94C1702.61 1477.85 1682.14 1473.75 1664.71 1468.65V1829.87C1651.72 1831.98 1638.65 1833.52 1625.53 1834.48C1611.68 1835.48 1599.12 1836 1587.84 1836C1575.28 1835.95 1562.72 1835.44 1550.19 1834.48C1537.57 1833.58 1525 1832.04 1512.54 1829.87V678.558L1512.56 678.55Z" fill="#FF4A00"/>
</g>
<defs>
<clipPath id="clip0_829_403">
<rect width="4009" height="1836" fill="white"/>
</clipPath>
</defs>
</svg>
