<?xml version="1.0" encoding="UTF-8" standalone="no"?>
<svg
   width="1500"
   height="376.47299"
   viewBox="0 0 1500 376.47299"
   version="1.1"
   id="svg19"
   xmlns="http://www.w3.org/2000/svg"
   xmlns:svg="http://www.w3.org/2000/svg"
   xmlns:rdf="http://www.w3.org/1999/02/22-rdf-syntax-ns#"
   xmlns:cc="http://creativecommons.org/ns#"
   xmlns:dc="http://purl.org/dc/elements/1.1/">
  <defs
     id="defs23" />
  <!-- Generator: Sketch 61.2 (89653) - https://sketch.com -->
  <title
     id="title9">Logo - Red &amp; Black</title>
  <desc
     id="desc11">Created with Sketch.</desc>
  <g
     id="Logo"
     stroke="none"
     stroke-width="1"
     fill="none"
     fill-rule="evenodd"
     transform="matrix(2.0840704,0,0,2.0840704,85.702768,63.191959)">
    <g
       id="Logo---Red-&amp;-Black"
       transform="translate(-120,-120)">
      <g
         transform="translate(120,120)"
         id="g15">
        <path
           d="M 476.76215,9.0215529e-4 V 101.87706 h -18.70323 v -5.51783 c -5.95167,4.81029 -13.74451,7.64147 -23.37954,7.64147 -17.9947,0 -34.71505,-15.14042 -34.71505,-37.355265 0,-22.214844 16.72035,-37.495762 34.71505,-37.495762 9.63503,0 17.42787,2.830174 23.37954,7.781968 V 9.0215529e-4 Z M 521.8159,29.149572 c 18.84494,0 35.14017,14.573374 35.8487,36.081686 v 6.367892 h -53.84339 c 1.84218,10.186604 9.0682,16.411977 17.71128,16.411977 5.52655,0 12.46916,-0.706533 17.56958,-9.337553 l 16.72035,3.536707 c -6.23407,14.714883 -18.84494,21.790319 -34.28993,21.790319 -19.97859,0 -36.27281,-15.140421 -36.27281,-37.355266 0,-22.213833 16.29422,-37.495762 36.55622,-37.495762 z m 79.83621,0 c 18.84393,0 35.13916,14.573374 35.84769,36.081686 v 6.367892 h -53.8434 c 1.84219,10.186604 9.0682,16.411977 17.71129,16.411977 5.52655,0 12.46915,-0.706533 17.57059,-9.337553 l 16.71933,3.536707 c -6.23407,14.714883 -18.84493,21.790319 -34.28992,21.790319 -19.97859,0 -36.27281,-15.140421 -36.27281,-37.355266 0,-22.213833 16.29422,-37.495762 36.55723,-37.495762 z M 249.218,29.15038 c 14.73545,0 27.48802,11.318675 27.48802,28.581726 V 101.87777 H 258.1445 V 61.55183 c 0,-9.480072 -6.09237,-15.280918 -13.88622,-15.280918 -9.91844,0 -16.43593,6.791407 -16.43593,21.647799 V 101.87777 H 209.11912 V 61.55183 c 0,-9.480072 -6.09338,-15.280918 -13.88622,-15.280918 -9.91844,0 -16.15251,6.791407 -16.15251,21.647799 V 101.87777 H 160.37716 V 31.272 h 18.70323 v 5.801857 c 4.95871,-4.953815 11.90132,-7.923477 21.11123,-7.923477 9.49433,0 18.13741,4.102742 23.23783,11.601692 C 229.23942,33.536139 237.8825,29.15038 249.218,29.15038 Z m 59.64466,2.121721 V 101.87787 H 290.15943 V 31.272101 Z m 56.10827,-2.121619 c 17.00275,0 28.33826,12.167726 28.33826,29.712783 V 101.87787 H 374.60596 V 62.825509 c 0,-9.904598 -5.66826,-16.554496 -14.31033,-16.554496 -10.62697,0 -17.57059,7.074424 -17.57059,24.336464 V 101.87787 H 324.02181 V 31.272101 h 18.70323 v 6.366881 c 5.52655,-5.518839 12.89428,-8.4885 22.24589,-8.4885 z m 72.9677,16.27067 c -11.33551,0 -19.83688,8.206494 -19.83688,21.224283 0,13.01779 8.50137,21.082775 19.83688,21.082775 10.06015,0 20.12029,-8.064985 20.12029,-21.082775 0,-13.017789 -10.06014,-21.224283 -20.12029,-21.224283 z m 83.87727,-1.01e-4 c -7.08431,0 -15.16057,4.245261 -17.42787,13.017789 h 34.14822 C 536.12724,49.383294 529.32533,45.421051 521.8159,45.421051 Z m 79.83621,0 c -7.08532,0 -15.16158,4.245261 -17.42888,13.017789 h 34.14822 C 615.96244,49.383294 609.16154,45.421051 601.65211,45.421051 Z M 308.86266,7e-4 V 18.678838 H 290.15943 V 7e-4 Z"
           id="Font"
           fill="#001e3c" />
        <path
           d="m 120.28272,3e-4 v 120 H 68.733426 v -17.143 H 103.09929 V 17.1433 H 68.733426 V 3e-4 Z M 51.550295,0 V 17.143 H 17.183432 v 85.715 H 51.550295 V 120 H 0 V 0 Z m -2.01e-4,68.5707 v 17.144 H 34.366663 v -17.144 z m 34.365861,-34.284 v 17.143 H 34.36566 v -17.143 z"
           id="Icon"
           fill="#fd3246" />
      </g>
    </g>
  </g>
  <metadata
     id="metadata105">
    <rdf:RDF>
      <cc:Work
         rdf:about="">
        <dc:title>Logo - Red &amp; Black</dc:title>
      </cc:Work>
    </rdf:RDF>
  </metadata>
</svg>
