<svg width="1600" height="301" viewBox="0 0 1600 301" fill="none" xmlns="http://www.w3.org/2000/svg">
<path fill-rule="evenodd" clip-rule="evenodd" d="M300.408 0.000751019V300.408H171.663V257.492H257.492V42.9165H171.663V0.000751019H300.408ZM128.748 0V42.9157H42.9159V257.494H128.748V300.407H0V0H128.748ZM128.747 171.66V214.578H85.8313V171.66H128.747ZM214.577 85.8332V128.749H85.8288V85.8332H214.577Z" fill="#FD3246"/>
<path fill-rule="evenodd" clip-rule="evenodd" d="M1196.89 0.000507768V255.89H1150.04V242.031C1135.14 254.113 1115.62 261.224 1091.48 261.224C1046.41 261.224 1004.53 223.195 1004.53 167.396C1004.53 111.598 1046.41 73.2156 1091.48 73.2156C1115.62 73.2156 1135.14 80.3244 1150.04 92.7622V0.000507768H1196.89ZM1309.74 73.2154C1356.95 73.2154 1397.76 109.82 1399.54 163.844V179.839H1264.67C1269.28 205.426 1287.38 221.062 1309.03 221.062C1322.88 221.062 1340.27 219.288 1353.04 197.608L1394.92 206.492C1379.31 243.452 1347.72 261.224 1309.03 261.224C1258.99 261.224 1218.18 223.195 1218.18 167.396C1218.18 111.6 1258.99 73.2154 1309.74 73.2154ZM1509.72 73.2154C1556.92 73.2154 1597.74 109.82 1599.51 163.844V179.839H1464.64C1469.26 205.426 1487.36 221.062 1509.01 221.062C1522.85 221.062 1540.24 219.288 1553.02 197.608L1594.9 206.492C1579.28 243.452 1547.69 261.224 1509.01 261.224C1458.96 261.224 1418.15 223.195 1418.15 167.396C1418.15 111.6 1458.96 73.2154 1509.72 73.2154ZM626.938 73.2174C663.847 73.2174 695.79 101.647 695.79 145.008V255.892H649.297V154.602C649.297 130.791 634.037 116.22 614.515 116.22C589.671 116.22 573.346 133.279 573.346 170.595V255.892H526.498V154.602C526.498 130.791 511.235 116.22 491.715 116.22C466.871 116.22 451.256 133.279 451.256 170.595V255.892H404.408V78.5464H451.256V93.1194C463.677 80.6765 481.067 73.2174 504.136 73.2174C527.917 73.2174 549.567 83.5225 562.342 102.358C576.895 84.2334 598.544 73.2174 626.938 73.2174ZM776.336 78.5467V255.892H729.488V78.5467H776.336ZM916.877 73.2177C959.466 73.2177 987.859 103.78 987.859 147.849V255.892H941.011V157.802C941.011 132.924 926.813 116.221 905.166 116.221C878.548 116.221 861.155 133.99 861.155 177.348V255.892H814.307V78.5467H861.155V94.5388C874.998 80.6768 893.453 73.2177 916.877 73.2177ZM1099.65 114.086C1071.25 114.086 1049.96 134.699 1049.96 167.396C1049.96 200.094 1071.25 220.352 1099.65 220.352C1124.85 220.352 1150.04 200.094 1150.04 167.396C1150.04 134.699 1124.85 114.086 1099.65 114.086ZM1309.74 114.086C1292 114.086 1271.77 124.749 1266.09 146.783H1351.63C1345.59 124.038 1328.55 114.086 1309.74 114.086ZM1509.72 114.086C1491.97 114.086 1471.74 124.749 1466.06 146.783H1551.6C1545.56 124.038 1528.53 114.086 1509.72 114.086ZM776.336 0V46.9152H729.488V0H776.336Z" fill="white"/>
</svg>
