<svg width="1600" height="301" viewBox="0 0 1600 301" fill="none" xmlns="http://www.w3.org/2000/svg">
<path fill-rule="evenodd" clip-rule="evenodd" d="M300.5 0.000752498V301H171.716V258H257.571V43.001H171.716V0.000752498H300.5ZM128.787 0V43.0002H42.9291V258.002H128.787V300.999H0V0H128.787ZM128.787 171.998V215H85.8576V171.998H128.787ZM214.642 86.0023V129.003H85.8551V86.0023H214.642Z" fill="#FD3246"/>
<path fill-rule="evenodd" clip-rule="evenodd" d="M1197.26 0.000508769V256.395H1150.4V242.508C1135.48 254.614 1115.96 261.739 1091.82 261.739C1046.73 261.739 1004.84 223.635 1004.84 167.726C1004.84 111.818 1046.73 73.3599 1091.82 73.3599C1115.96 73.3599 1135.48 80.4826 1150.4 92.9449V0.000508769H1197.26ZM1310.15 73.3596C1357.36 73.3596 1398.19 110.037 1399.97 164.167V180.193H1265.06C1269.67 205.83 1287.78 221.498 1309.43 221.498C1323.28 221.498 1340.68 219.72 1353.46 197.998L1395.35 206.899C1379.73 243.932 1348.13 261.739 1309.43 261.739C1259.38 261.739 1218.55 223.635 1218.55 167.726C1218.55 111.82 1259.38 73.3596 1310.15 73.3596ZM1510.18 73.3596C1557.4 73.3596 1598.22 110.037 1600 164.167V180.193H1465.09C1469.71 205.83 1487.81 221.498 1509.47 221.498C1523.32 221.498 1540.71 219.72 1553.49 197.998L1595.38 206.899C1579.76 243.932 1548.17 261.739 1509.47 261.739C1459.41 261.739 1418.58 223.635 1418.58 167.726C1418.58 111.82 1459.41 73.3596 1510.18 73.3596ZM627.13 73.3617C664.051 73.3617 696.003 101.848 696.003 145.294V256.396H649.496V154.907C649.496 131.048 634.231 116.449 614.703 116.449C589.851 116.449 573.521 133.541 573.521 170.931V256.396H526.659V154.907C526.659 131.048 511.392 116.449 491.866 116.449C467.015 116.449 451.395 133.541 451.395 170.931V256.396H404.532V78.7012H451.395V93.3028C463.819 80.8355 481.214 73.3617 504.29 73.3617C528.079 73.3617 549.735 83.6871 562.515 102.56C577.072 84.3994 598.728 73.3617 627.13 73.3617ZM776.574 78.7014V256.397H729.712V78.7014H776.574ZM917.158 73.3619C959.759 73.3619 988.162 103.985 988.162 148.141V256.397H941.299V158.113C941.299 133.185 927.097 116.45 905.443 116.45C878.817 116.45 861.419 134.254 861.419 177.698V256.397H814.557V78.7014H861.419V94.7251C875.266 80.8357 893.727 73.3619 917.158 73.3619ZM1099.98 114.311C1071.58 114.311 1050.28 134.964 1050.28 167.726C1050.28 200.488 1071.58 220.786 1099.98 220.786C1125.19 220.786 1150.4 200.488 1150.4 167.726C1150.4 134.964 1125.19 114.311 1099.98 114.311ZM1310.15 114.31C1292.39 114.31 1272.16 124.995 1266.48 147.073H1352.04C1346 124.282 1328.96 114.31 1310.15 114.31ZM1510.18 114.31C1492.43 114.31 1472.19 124.995 1466.51 147.073H1552.07C1546.04 124.282 1529 114.31 1510.18 114.31ZM776.574 0V47.0077H729.712V0H776.574Z" fill="#001E3C"/>
</svg>
