<svg width="1576" height="296" viewBox="0 0 1576 296" fill="none" xmlns="http://www.w3.org/2000/svg">
<path fill-rule="evenodd" clip-rule="evenodd" d="M295.993 0.000739998V296H169.14V253.714H253.708V42.2867H169.14V0.000739998H295.993ZM126.855 0V42.286H42.2851V253.716H126.855V295.999H0V0H126.855ZM126.855 169.141V211.429H84.5697V169.141H126.855ZM211.423 84.5737V126.86H84.5673V84.5737H211.423Z" fill="#FD3246"/>
<path fill-rule="evenodd" clip-rule="evenodd" d="M1179.3 0.000500317V252.135H1133.14V238.479C1118.45 250.384 1099.22 257.391 1075.44 257.391C1031.03 257.391 989.764 219.92 989.764 164.94C989.764 109.96 1031.03 72.1413 1075.44 72.1413C1099.22 72.1413 1118.45 79.1457 1133.14 91.401V0.000500317H1179.3ZM1290.49 72.141C1337 72.141 1377.22 108.209 1378.97 161.44V177.2H1246.08C1250.63 202.411 1268.46 217.818 1289.79 217.818C1303.43 217.818 1320.57 216.07 1333.15 194.709L1374.42 203.462C1359.03 239.88 1327.91 257.391 1289.79 257.391C1240.49 257.391 1200.27 219.92 1200.27 164.94C1200.27 109.963 1240.49 72.141 1290.49 72.141ZM1487.53 72.141C1534.03 72.141 1574.25 108.209 1576 161.44V177.2H1443.11C1447.66 202.411 1465.49 217.818 1486.83 217.818C1500.47 217.818 1517.6 216.07 1530.19 194.709L1571.45 203.462C1556.07 239.88 1524.94 257.391 1486.83 257.391C1437.52 257.391 1397.3 219.92 1397.3 164.94C1397.3 109.963 1437.52 72.141 1487.53 72.141ZM617.723 72.143C654.09 72.143 685.563 100.156 685.563 142.88V252.137H639.753V152.334C639.753 128.872 624.717 114.515 605.482 114.515C581.003 114.515 564.918 131.323 564.918 168.091V252.137H518.759V152.334C518.759 128.872 503.72 114.515 484.488 114.515C460.009 114.515 444.623 131.323 444.623 168.091V252.137H398.464V77.3938H444.623V91.753C456.861 79.4927 473.996 72.143 496.726 72.143C520.158 72.143 541.489 82.297 554.077 100.856C568.416 82.9974 589.747 72.143 617.723 72.143ZM764.925 77.3941V252.137H718.766V77.3941H764.925ZM903.4 72.1433C945.363 72.1433 973.339 102.257 973.339 145.68V252.137H927.179V155.486C927.179 130.973 913.19 114.515 891.861 114.515C865.634 114.515 848.497 132.024 848.497 174.746V252.137H802.338V77.3941H848.497V93.1516C862.137 79.4929 880.32 72.1433 903.4 72.1433ZM1083.48 112.412C1055.51 112.412 1034.53 132.722 1034.53 164.94C1034.53 197.158 1055.51 217.118 1083.48 217.118C1108.31 217.118 1133.14 197.158 1133.14 164.94C1133.14 132.722 1108.31 112.412 1083.48 112.412ZM1290.49 112.412C1273.01 112.412 1253.08 122.918 1247.48 144.629H1331.76C1325.81 122.218 1309.03 112.412 1290.49 112.412ZM1487.53 112.412C1470.04 112.412 1450.11 122.918 1444.51 144.629H1528.79C1522.85 122.218 1506.06 112.412 1487.53 112.412ZM764.925 0V46.2268H718.766V0H764.925Z" fill="#001E3C"/>
</svg>
